<?xml version="1.0" encoding="UTF-8" standalone="no"?><svg xmlns="http://www.w3.org/2000/svg" xmlns:xlink="http://www.w3.org/1999/xlink" clip-rule="evenodd" stroke-miterlimit="10" viewBox="0 0 866 220"><desc>SVG generated by Keynote</desc><defs></defs><g transform="matrix(1.00, 0.00, -0.00, -1.00, 0.0, 220.0)"><g><clipPath id="clip0x6180006bc920"><path d="M 0.5 0.6 L 525.5 0.6 L 525.5 220.0 L 0.5 220.0 Z M 0.5 0.6 "></path></clipPath><g clip-path="url(#clip0x6180006bc920)"><path d="M 2.0 219.0 L 525.0 219.0 L 525.0 2.0 L 2.0 2.0 Z M 1.5 219.0 " fill="#FBC05A" fill-opacity="0.40"></path></g></g><g><clipPath id="clip0x6180006bcf20"><path d="M 318.5 0.6 L 865.5 0.6 L 865.5 219.5 L 318.5 219.5 Z M 318.5 0.6 "></path></clipPath><g clip-path="url(#clip0x6180006bcf20)"><path d="M 320.0 219.0 L 865.0 219.0 L 865.0 2.0 L 320.0 2.0 Z M 319.5 218.5 " fill="#383838"></path></g></g><g><clipPath id="clip0x6180006bd160"><path d="M -1.0 84.2 L 322.0 84.2 L 322.0 132.2 L -1.0 132.2 Z M -1.0 84.2 "></path></clipPath><g clip-path="url(#clip0x6180006bd160)"><text xml:space="preserve" font-family="ProximaNova-Regular,Proxima Nova" font-size="28.0" fill="#3D3E38" transform="matrix(1.00, 0.00, -0.00, -1.00, 54.5, 97.1)">W</text><text xml:space="preserve" font-family="ProximaNova-Regular,Proxima Nova" font-size="28.0" fill="#3D3E38" transform="matrix(1.00, 0.00, -0.00, -1.00, 79.2, 97.1)">i</text><text xml:space="preserve" font-family="ProximaNova-Regular,Proxima Nova" font-size="28.0" fill="#3D3E38" transform="matrix(1.00, 0.00, -0.00, -1.00, 85.5, 97.1)">t</text><text xml:space="preserve" font-family="ProximaNova-Regular,Proxima Nova" font-size="28.0" fill="#3D3E38" transform="matrix(1.00, 0.00, -0.00, -1.00, 93.8, 97.1)">h</text><text xml:space="preserve" font-family="ProximaNova-Regular,Proxima Nova" font-size="28.0" fill="#3D3E38" transform="matrix(1.00, 0.00, -0.00, -1.00, 109.2, 97.1)"> </text><text xml:space="preserve" font-family="ProximaNova-Regular,Proxima Nova" font-size="28.0" fill="#3D3E38" transform="matrix(1.00, 0.00, -0.00, -1.00, 116.5, 97.1)">a</text><text xml:space="preserve" font-family="ProximaNova-Regular,Proxima Nova" font-size="28.0" fill="#3D3E38" transform="matrix(1.00, 0.00, -0.00, -1.00, 131.3, 97.1)">r</text><text xml:space="preserve" font-family="ProximaNova-Regular,Proxima Nova" font-size="28.0" fill="#3D3E38" transform="matrix(1.00, 0.00, -0.00, -1.00, 140.5, 97.1)">g</text><text xml:space="preserve" font-family="ProximaNova-Regular,Proxima Nova" font-size="28.0" fill="#3D3E38" transform="matrix(1.00, 0.00, -0.00, -1.00, 156.6, 97.1)">u</text><text xml:space="preserve" font-family="ProximaNova-Regular,Proxima Nova" font-size="28.0" fill="#3D3E38" transform="matrix(1.00, 0.00, -0.00, -1.00, 172.0, 97.1)">m</text><text xml:space="preserve" font-family="ProximaNova-Regular,Proxima Nova" font-size="28.0" fill="#3D3E38" transform="matrix(1.00, 0.00, -0.00, -1.00, 194.7, 97.1)">e</text><text xml:space="preserve" font-family="ProximaNova-Regular,Proxima Nova" font-size="28.0" fill="#3D3E38" transform="matrix(1.00, 0.00, -0.00, -1.00, 210.4, 97.1)">n</text><text xml:space="preserve" font-family="ProximaNova-Regular,Proxima Nova" font-size="28.0" fill="#3D3E38" transform="matrix(1.00, 0.00, -0.00, -1.00, 225.9, 97.1)">t</text><text xml:space="preserve" font-family="ProximaNova-Regular,Proxima Nova" font-size="28.0" fill="#3D3E38" transform="matrix(1.00, 0.00, -0.00, -1.00, 234.1, 97.1)">s</text><text xml:space="preserve" font-family="ProximaNova-Regular,Proxima Nova" font-size="28.0" fill="#3D3E38" transform="matrix(1.00, 0.00, -0.00, -1.00, 247.1, 97.1)">…</text></g></g><g><clipPath id="clip0x6180006bd8e0"><path d="M 346.9 14.1 L 828.4 14.1 L 828.4 199.4 L 346.9 199.4 Z M 346.9 14.1 "></path></clipPath><g clip-path="url(#clip0x6180006bd8e0)"><image xlink:href="4028E53876891CF381D763ACF68286CB.png" width="728.00" height="280.00" transform="matrix(0.66, 0.00, -0.00, -0.66, 346.9, 199.4)"></image></g></g></g></svg>