<?xml version="1.0" encoding="UTF-8" standalone="no"?><svg xmlns="http://www.w3.org/2000/svg" xmlns:xlink="http://www.w3.org/1999/xlink" clip-rule="evenodd" stroke-miterlimit="10" viewBox="0 0 866 341"><desc>SVG generated by Keynote</desc><defs></defs><g transform="matrix(1.00, 0.00, -0.00, -1.00, 0.0, 341.0)"><g><clipPath id="clip0x6080006bc860"><path d="M 0.5 1.5 L 525.5 1.5 L 525.5 340.9 L 0.5 340.9 Z M 0.5 1.5 "></path></clipPath><g clip-path="url(#clip0x6080006bc860)"><path d="M 2.0 340.0 L 525.0 340.0 L 525.0 3.0 L 2.0 3.0 Z M 1.5 339.9 " fill="#FBC05A" fill-opacity="0.40"></path></g></g><g><clipPath id="clip0x6080006bca40"><path d="M 318.5 0.6 L 865.5 0.6 L 865.5 339.9 L 318.5 339.9 Z M 318.5 0.6 "></path></clipPath><g clip-path="url(#clip0x6080006bca40)"><path d="M 320.0 339.0 L 865.0 339.0 L 865.0 2.0 L 320.0 2.0 Z M 319.5 338.9 " fill="#383838"></path></g></g><g><clipPath id="clip0x6080006bcce0"><path d="M -1.0 142.1 L 322.0 142.1 L 322.0 190.1 L -1.0 190.1 Z M -1.0 142.1 "></path></clipPath><g clip-path="url(#clip0x6080006bcce0)"><text xml:space="preserve" font-family="ProximaNova-Regular,Proxima Nova" font-size="28.0" fill="#3D3E38" transform="matrix(1.00, 0.00, -0.00, -1.00, 74.3, 155.0)">W</text><text xml:space="preserve" font-family="ProximaNova-Regular,Proxima Nova" font-size="28.0" fill="#3D3E38" transform="matrix(1.00, 0.00, -0.00, -1.00, 99.0, 155.0)">i</text><text xml:space="preserve" font-family="ProximaNova-Regular,Proxima Nova" font-size="28.0" fill="#3D3E38" transform="matrix(1.00, 0.00, -0.00, -1.00, 105.3, 155.0)">t</text><text xml:space="preserve" font-family="ProximaNova-Regular,Proxima Nova" font-size="28.0" fill="#3D3E38" transform="matrix(1.00, 0.00, -0.00, -1.00, 113.6, 155.0)">h</text><text xml:space="preserve" font-family="ProximaNova-Regular,Proxima Nova" font-size="28.0" fill="#3D3E38" transform="matrix(1.00, 0.00, -0.00, -1.00, 129.0, 155.0)"> </text><text xml:space="preserve" font-family="ProximaNova-Regular,Proxima Nova" font-size="28.0" fill="#3D3E38" transform="matrix(1.00, 0.00, -0.00, -1.00, 136.3, 155.0)">o</text><text xml:space="preserve" font-family="ProximaNova-Regular,Proxima Nova" font-size="28.0" fill="#3D3E38" transform="matrix(1.00, 0.00, -0.00, -1.00, 152.3, 155.0)">p</text><text xml:space="preserve" font-family="ProximaNova-Regular,Proxima Nova" font-size="28.0" fill="#3D3E38" transform="matrix(1.00, 0.00, -0.00, -1.00, 168.3, 155.0)">t</text><text xml:space="preserve" font-family="ProximaNova-Regular,Proxima Nova" font-size="28.0" fill="#3D3E38" transform="matrix(1.00, 0.00, -0.00, -1.00, 176.5, 155.0)">i</text><text xml:space="preserve" font-family="ProximaNova-Regular,Proxima Nova" font-size="28.0" fill="#3D3E38" transform="matrix(1.00, 0.00, -0.00, -1.00, 182.8, 155.0)">o</text><text xml:space="preserve" font-family="ProximaNova-Regular,Proxima Nova" font-size="28.0" fill="#3D3E38" transform="matrix(1.00, 0.00, -0.00, -1.00, 198.9, 155.0)">n</text><text xml:space="preserve" font-family="ProximaNova-Regular,Proxima Nova" font-size="28.0" fill="#3D3E38" transform="matrix(1.00, 0.00, -0.00, -1.00, 214.3, 155.0)">s</text><text xml:space="preserve" font-family="ProximaNova-Regular,Proxima Nova" font-size="28.0" fill="#3D3E38" transform="matrix(1.00, 0.00, -0.00, -1.00, 227.3, 155.0)">…</text></g></g><g><clipPath id="clip0x6080006bd3a0"><path d="M 341.9 11.9 L 807.4 11.9 L 807.4 322.6 L 341.9 322.6 Z M 341.9 11.9 "></path></clipPath><g clip-path="url(#clip0x6080006bd3a0)"><image xlink:href="C6B28D0B820F654EE7B17111EC4831AA.png" width="734.00" height="490.00" transform="matrix(0.63, 0.00, -0.00, -0.63, 341.9, 322.6)"></image></g></g></g></svg>