<?xml version="1.0" encoding="UTF-8" standalone="no"?><svg xmlns="http://www.w3.org/2000/svg" xmlns:xlink="http://www.w3.org/1999/xlink" clip-rule="evenodd" stroke-miterlimit="10" viewBox="0 0 1024 768"><desc>SVG generated by Keynote</desc><defs></defs><g transform="matrix(1.00, 0.00, -0.00, -1.00, 0.0, 768.0)"><path d="M 0.0 768.0 L 1024.0 768.0 L 1024.0 0.0 L 0.0 0.0 Z M 0.0 768.0 " fill="#F6F5E8"></path><g><clipPath id="clip0x6180006bef00"><path d="M 52.5 48.6 L 577.5 48.6 L 577.5 387.9 L 52.5 387.9 Z M 52.5 48.6 "></path></clipPath><g clip-path="url(#clip0x6180006bef00)"><path d="M 54.0 387.0 L 577.0 387.0 L 577.0 50.0 L 54.0 50.0 Z M 53.5 386.9 " fill="#FBC05A" fill-opacity="0.40"></path></g></g><g><clipPath id="clip0x6180006bf140"><path d="M 370.5 47.6 L 917.5 47.6 L 917.5 386.9 L 370.5 386.9 Z M 370.5 47.6 "></path></clipPath><g clip-path="url(#clip0x6180006bf140)"><path d="M 372.0 386.0 L 917.0 386.0 L 917.0 49.0 L 372.0 49.0 Z M 371.5 385.9 " fill="#383838"></path></g></g><g><clipPath id="clip0x6180006bf380"><path d="M 51.0 189.1 L 374.0 189.1 L 374.0 237.1 L 51.0 237.1 Z M 51.0 189.1 "></path></clipPath><g clip-path="url(#clip0x6180006bf380)"><text xml:space="preserve" font-family="ProximaNova-Regular,Proxima Nova" font-size="28.0" fill="#3D3E38" transform="matrix(1.00, 0.00, -0.00, -1.00, 126.3, 202.0)">W</text><text xml:space="preserve" font-family="ProximaNova-Regular,Proxima Nova" font-size="28.0" fill="#3D3E38" transform="matrix(1.00, 0.00, -0.00, -1.00, 151.0, 202.0)">i</text><text xml:space="preserve" font-family="ProximaNova-Regular,Proxima Nova" font-size="28.0" fill="#3D3E38" transform="matrix(1.00, 0.00, -0.00, -1.00, 157.3, 202.0)">t</text><text xml:space="preserve" font-family="ProximaNova-Regular,Proxima Nova" font-size="28.0" fill="#3D3E38" transform="matrix(1.00, 0.00, -0.00, -1.00, 165.6, 202.0)">h</text><text xml:space="preserve" font-family="ProximaNova-Regular,Proxima Nova" font-size="28.0" fill="#3D3E38" transform="matrix(1.00, 0.00, -0.00, -1.00, 181.0, 202.0)"> </text><text xml:space="preserve" font-family="ProximaNova-Regular,Proxima Nova" font-size="28.0" fill="#3D3E38" transform="matrix(1.00, 0.00, -0.00, -1.00, 188.3, 202.0)">o</text><text xml:space="preserve" font-family="ProximaNova-Regular,Proxima Nova" font-size="28.0" fill="#3D3E38" transform="matrix(1.00, 0.00, -0.00, -1.00, 204.3, 202.0)">p</text><text xml:space="preserve" font-family="ProximaNova-Regular,Proxima Nova" font-size="28.0" fill="#3D3E38" transform="matrix(1.00, 0.00, -0.00, -1.00, 220.3, 202.0)">t</text><text xml:space="preserve" font-family="ProximaNova-Regular,Proxima Nova" font-size="28.0" fill="#3D3E38" transform="matrix(1.00, 0.00, -0.00, -1.00, 228.5, 202.0)">i</text><text xml:space="preserve" font-family="ProximaNova-Regular,Proxima Nova" font-size="28.0" fill="#3D3E38" transform="matrix(1.00, 0.00, -0.00, -1.00, 234.8, 202.0)">o</text><text xml:space="preserve" font-family="ProximaNova-Regular,Proxima Nova" font-size="28.0" fill="#3D3E38" transform="matrix(1.00, 0.00, -0.00, -1.00, 250.9, 202.0)">n</text><text xml:space="preserve" font-family="ProximaNova-Regular,Proxima Nova" font-size="28.0" fill="#3D3E38" transform="matrix(1.00, 0.00, -0.00, -1.00, 266.3, 202.0)">s</text><text xml:space="preserve" font-family="ProximaNova-Regular,Proxima Nova" font-size="28.0" fill="#3D3E38" transform="matrix(1.00, 0.00, -0.00, -1.00, 279.3, 202.0)">…</text></g></g><g><clipPath id="clip0x6180006bfa40"><path d="M 393.9 58.9 L 859.4 58.9 L 859.4 369.6 L 393.9 369.6 Z M 393.9 58.9 "></path></clipPath><g clip-path="url(#clip0x6180006bfa40)"><image xlink:href="../../9380299E-4407-4EBC-B3C0-B6731CEB596D/assets/C6B28D0B820F654EE7B17111EC4831AA.png" width="734.00" height="490.00" transform="matrix(0.63, 0.00, -0.00, -0.63, 393.9, 369.6)"></image></g></g><path d="M -1.0 767.0 L 1025.0 767.0 L 1025.0 678.0 L -1.0 678.0 Z M -1.0 767.5 " fill="#FEFFFE"></path><text xml:space="preserve" font-family="ProximaNova-Regular,Proxima Nova" font-size="36.0" fill="#DF7E3E" transform="matrix(1.00, 0.00, -0.00, -1.00, 30.0, 708.6)">A</text><text xml:space="preserve" font-family="ProximaNova-Regular,Proxima Nova" font-size="36.0" fill="#DF7E3E" transform="matrix(1.00, 0.00, -0.00, -1.00, 53.7, 708.6)">r</text><text xml:space="preserve" font-family="ProximaNova-Regular,Proxima Nova" font-size="36.0" fill="#DF7E3E" transform="matrix(1.00, 0.00, -0.00, -1.00, 65.6, 708.6)">g</text><text xml:space="preserve" font-family="ProximaNova-Regular,Proxima Nova" font-size="36.0" fill="#DF7E3E" transform="matrix(1.00, 0.00, -0.00, -1.00, 86.3, 708.6)">u</text><text xml:space="preserve" font-family="ProximaNova-Regular,Proxima Nova" font-size="36.0" fill="#DF7E3E" transform="matrix(1.00, 0.00, -0.00, -1.00, 106.1, 708.6)">m</text><text xml:space="preserve" font-family="ProximaNova-Regular,Proxima Nova" font-size="36.0" fill="#DF7E3E" transform="matrix(1.00, 0.00, -0.00, -1.00, 135.2, 708.6)">e</text><text xml:space="preserve" font-family="ProximaNova-Regular,Proxima Nova" font-size="36.0" fill="#DF7E3E" transform="matrix(1.00, 0.00, -0.00, -1.00, 155.5, 708.6)">n</text><text xml:space="preserve" font-family="ProximaNova-Regular,Proxima Nova" font-size="36.0" fill="#DF7E3E" transform="matrix(1.00, 0.00, -0.00, -1.00, 175.3, 708.6)">t</text><text xml:space="preserve" font-family="ProximaNova-Regular,Proxima Nova" font-size="36.0" fill="#DF7E3E" transform="matrix(1.00, 0.00, -0.00, -1.00, 185.9, 708.6)">s</text><text xml:space="preserve" font-family="ProximaNova-Regular,Proxima Nova" font-size="36.0" fill="#DF7E3E" transform="matrix(1.00, 0.00, -0.00, -1.00, 202.7, 708.6)"> </text><text xml:space="preserve" font-family="ProximaNova-Regular,Proxima Nova" font-size="36.0" fill="#DF7E3E" transform="matrix(1.00, 0.00, -0.00, -1.00, 212.0, 708.6)">&amp;</text><text xml:space="preserve" font-family="ProximaNova-Regular,Proxima Nova" font-size="36.0" fill="#DF7E3E" transform="matrix(1.00, 0.00, -0.00, -1.00, 235.1, 708.6)"> </text><text xml:space="preserve" font-family="ProximaNova-Regular,Proxima Nova" font-size="36.0" fill="#DF7E3E" transform="matrix(1.00, 0.00, -0.00, -1.00, 244.4, 708.6)">O</text><text xml:space="preserve" font-family="ProximaNova-Regular,Proxima Nova" font-size="36.0" fill="#DF7E3E" transform="matrix(1.00, 0.00, -0.00, -1.00, 272.0, 708.6)">p</text><text xml:space="preserve" font-family="ProximaNova-Regular,Proxima Nova" font-size="36.0" fill="#DF7E3E" transform="matrix(1.00, 0.00, -0.00, -1.00, 292.5, 708.6)">t</text><text xml:space="preserve" font-family="ProximaNova-Regular,Proxima Nova" font-size="36.0" fill="#DF7E3E" transform="matrix(1.00, 0.00, -0.00, -1.00, 303.1, 708.6)">i</text><text xml:space="preserve" font-family="ProximaNova-Regular,Proxima Nova" font-size="36.0" fill="#DF7E3E" transform="matrix(1.00, 0.00, -0.00, -1.00, 311.2, 708.6)">o</text><text xml:space="preserve" font-family="ProximaNova-Regular,Proxima Nova" font-size="36.0" fill="#DF7E3E" transform="matrix(1.00, 0.00, -0.00, -1.00, 331.8, 708.6)">n</text><text xml:space="preserve" font-family="ProximaNova-Regular,Proxima Nova" font-size="36.0" fill="#DF7E3E" transform="matrix(1.00, 0.00, -0.00, -1.00, 351.7, 708.6)">s</text><path d="M 0.0 0.5 L 1024.0 0.5 " fill="none" stroke="#C6C7BE" stroke-width="1.00" transform="matrix(1.00, 0.00, 0.00, -1.00, -0.0, 679.0)"></path><g><clipPath id="clip0x6180008a05a0"><path d="M 52.5 424.6 L 577.5 424.6 L 577.5 644.0 L 52.5 644.0 Z M 52.5 424.6 "></path></clipPath><g clip-path="url(#clip0x6180008a05a0)"><path d="M 54.0 643.0 L 577.0 643.0 L 577.0 426.0 L 54.0 426.0 Z M 53.5 643.0 " fill="#FBC05A" fill-opacity="0.40"></path></g></g><g><clipPath id="clip0x6180008a07e0"><path d="M 370.5 424.6 L 917.5 424.6 L 917.5 643.5 L 370.5 643.5 Z M 370.5 424.6 "></path></clipPath><g clip-path="url(#clip0x6180008a07e0)"><path d="M 372.0 643.0 L 917.0 643.0 L 917.0 426.0 L 372.0 426.0 Z M 371.5 642.5 " fill="#383838"></path></g></g><g><clipPath id="clip0x6180008a0a20"><path d="M 51.0 508.2 L 374.0 508.2 L 374.0 556.2 L 51.0 556.2 Z M 51.0 508.2 "></path></clipPath><g clip-path="url(#clip0x6180008a0a20)"><text xml:space="preserve" font-family="ProximaNova-Regular,Proxima Nova" font-size="28.0" fill="#3D3E38" transform="matrix(1.00, 0.00, -0.00, -1.00, 106.5, 521.1)">W</text><text xml:space="preserve" font-family="ProximaNova-Regular,Proxima Nova" font-size="28.0" fill="#3D3E38" transform="matrix(1.00, 0.00, -0.00, -1.00, 131.2, 521.1)">i</text><text xml:space="preserve" font-family="ProximaNova-Regular,Proxima Nova" font-size="28.0" fill="#3D3E38" transform="matrix(1.00, 0.00, -0.00, -1.00, 137.5, 521.1)">t</text><text xml:space="preserve" font-family="ProximaNova-Regular,Proxima Nova" font-size="28.0" fill="#3D3E38" transform="matrix(1.00, 0.00, -0.00, -1.00, 145.8, 521.1)">h</text><text xml:space="preserve" font-family="ProximaNova-Regular,Proxima Nova" font-size="28.0" fill="#3D3E38" transform="matrix(1.00, 0.00, -0.00, -1.00, 161.2, 521.1)"> </text><text xml:space="preserve" font-family="ProximaNova-Regular,Proxima Nova" font-size="28.0" fill="#3D3E38" transform="matrix(1.00, 0.00, -0.00, -1.00, 168.5, 521.1)">a</text><text xml:space="preserve" font-family="ProximaNova-Regular,Proxima Nova" font-size="28.0" fill="#3D3E38" transform="matrix(1.00, 0.00, -0.00, -1.00, 183.3, 521.1)">r</text><text xml:space="preserve" font-family="ProximaNova-Regular,Proxima Nova" font-size="28.0" fill="#3D3E38" transform="matrix(1.00, 0.00, -0.00, -1.00, 192.5, 521.1)">g</text><text xml:space="preserve" font-family="ProximaNova-Regular,Proxima Nova" font-size="28.0" fill="#3D3E38" transform="matrix(1.00, 0.00, -0.00, -1.00, 208.6, 521.1)">u</text><text xml:space="preserve" font-family="ProximaNova-Regular,Proxima Nova" font-size="28.0" fill="#3D3E38" transform="matrix(1.00, 0.00, -0.00, -1.00, 224.0, 521.1)">m</text><text xml:space="preserve" font-family="ProximaNova-Regular,Proxima Nova" font-size="28.0" fill="#3D3E38" transform="matrix(1.00, 0.00, -0.00, -1.00, 246.7, 521.1)">e</text><text xml:space="preserve" font-family="ProximaNova-Regular,Proxima Nova" font-size="28.0" fill="#3D3E38" transform="matrix(1.00, 0.00, -0.00, -1.00, 262.4, 521.1)">n</text><text xml:space="preserve" font-family="ProximaNova-Regular,Proxima Nova" font-size="28.0" fill="#3D3E38" transform="matrix(1.00, 0.00, -0.00, -1.00, 277.9, 521.1)">t</text><text xml:space="preserve" font-family="ProximaNova-Regular,Proxima Nova" font-size="28.0" fill="#3D3E38" transform="matrix(1.00, 0.00, -0.00, -1.00, 286.1, 521.1)">s</text><text xml:space="preserve" font-family="ProximaNova-Regular,Proxima Nova" font-size="28.0" fill="#3D3E38" transform="matrix(1.00, 0.00, -0.00, -1.00, 299.1, 521.1)">…</text></g></g><g><clipPath id="clip0x6180008a11a0"><path d="M 398.9 438.1 L 880.4 438.1 L 880.4 623.4 L 398.9 623.4 Z M 398.9 438.1 "></path></clipPath><g clip-path="url(#clip0x6180008a11a0)"><image xlink:href="../../9380299E-4407-4EBC-B3C0-B6731CEB596D/assets/4028E53876891CF381D763ACF68286CB.png" width="728.00" height="280.00" transform="matrix(0.66, 0.00, -0.00, -0.66, 398.9, 623.4)"></image></g></g></g></svg>