<?xml version="1.0" encoding="UTF-8" standalone="no"?><svg xmlns="http://www.w3.org/2000/svg" xmlns:xlink="http://www.w3.org/1999/xlink" clip-rule="evenodd" stroke-miterlimit="10" viewBox="0 0 842 440"><desc>SVG generated by Keynote</desc><defs><pattern id="patternP1" patternUnits="userSpaceOnUse" width="600" height="600" viewBox="0 0 600 600"><image xlink:href="89301C1B52D09B8D23371B239BEBF485.png" width="600.00" height="600.00"></image></pattern></defs><g transform="matrix(1.00, 0.00, -0.00, -1.00, 0.0, 440.0)"><g><clipPath id="clip0x6080006adc80"><path d="M 2.0 0.1 L 749.0 0.1 L 749.0 380.7 L 2.0 380.7 Z M 2.0 0.1 "></path></clipPath><g clip-path="url(#clip0x6080006adc80)"><path d="M 3.0 380.0 L 748.0 380.0 L 748.0 1.0 L 3.0 1.0 Z M 3.0 379.7 " fill="#383838"></path></g></g><g><clipPath id="clip0x6080006ad680"><path d="M 27.8 17.3 L 634.6 17.3 L 634.6 361.5 L 27.8 361.5 Z M 27.8 17.3 "></path></clipPath><g clip-path="url(#clip0x6080006ad680)"><image xlink:href="85FE6F57873560DCE3DD3F48CB933E84.png" width="906.00" height="514.00" transform="matrix(0.67, 0.00, -0.00, -0.67, 27.8, 361.5)"></image></g></g><g><clipPath id="clip0x6180006ade00"><path d="M 0.5 377.7 L 747.5 377.7 L 747.5 439.3 L 0.5 439.3 Z M 0.5 377.7 "></path></clipPath><g clip-path="url(#clip0x6180006ade00)"><path d="M 2.0 438.0 L 747.0 438.0 L 747.0 379.0 L 2.0 379.0 Z M 1.5 438.3 " fill="#FBC05A" fill-opacity="0.40"></path></g></g><g><clipPath id="clip0x6180006ae040"><path d="M 13.0 385.3 L 843.0 385.3 L 843.0 433.3 L 13.0 433.3 Z M 13.0 385.3 "></path></clipPath><g clip-path="url(#clip0x6180006ae040)"><text xml:space="preserve" font-family="ProximaNova-Regular,Proxima Nova" font-size="28.0" fill="#3D3E38" transform="matrix(1.00, 0.00, -0.00, -1.00, 20.0, 398.2)">2</text><text xml:space="preserve" font-family="ProximaNova-Regular,Proxima Nova" font-size="28.0" fill="#3D3E38" transform="matrix(1.00, 0.00, -0.00, -1.00, 36.5, 398.2)">.</text><text xml:space="preserve" font-family="ProximaNova-Regular,Proxima Nova" font-size="28.0" fill="#3D3E38" transform="matrix(1.00, 0.00, -0.00, -1.00, 42.9, 398.2)"> </text><text xml:space="preserve" font-family="ProximaNova-Regular,Proxima Nova" font-size="28.0" fill="#3D3E38" transform="matrix(1.00, 0.00, -0.00, -1.00, 66.0, 398.2)">E</text><text xml:space="preserve" font-family="ProximaNova-Regular,Proxima Nova" font-size="28.0" fill="#3D3E38" transform="matrix(1.00, 0.00, -0.00, -1.00, 81.9, 398.2)">x</text><text xml:space="preserve" font-family="ProximaNova-Regular,Proxima Nova" font-size="28.0" fill="#3D3E38" transform="matrix(1.00, 0.00, -0.00, -1.00, 95.6, 398.2)">t</text><text xml:space="preserve" font-family="ProximaNova-Regular,Proxima Nova" font-size="28.0" fill="#3D3E38" transform="matrix(1.00, 0.00, -0.00, -1.00, 103.8, 398.2)">e</text><text xml:space="preserve" font-family="ProximaNova-Regular,Proxima Nova" font-size="28.0" fill="#3D3E38" transform="matrix(1.00, 0.00, -0.00, -1.00, 119.6, 398.2)">n</text><text xml:space="preserve" font-family="ProximaNova-Regular,Proxima Nova" font-size="28.0" fill="#3D3E38" transform="matrix(1.00, 0.00, -0.00, -1.00, 135.0, 398.2)">d</text><text xml:space="preserve" font-family="ProximaNova-Regular,Proxima Nova" font-size="28.0" fill="#3D3E38" transform="matrix(1.00, 0.00, -0.00, -1.00, 151.1, 398.2)"> </text><text xml:space="preserve" font-family="ProximaNova-Semibold,Proxima Nova" font-weight="bold" font-size="28.0" fill="#3D3E38" transform="matrix(1.00, 0.00, -0.00, -1.00, 158.4, 398.2)">S</text><text xml:space="preserve" font-family="ProximaNova-Semibold,Proxima Nova" font-weight="bold" font-size="28.0" fill="#3D3E38" transform="matrix(1.00, 0.00, -0.00, -1.00, 175.0, 398.2)">c</text><text xml:space="preserve" font-family="ProximaNova-Semibold,Proxima Nova" font-weight="bold" font-size="28.0" fill="#3D3E38" transform="matrix(1.00, 0.00, -0.00, -1.00, 189.0, 398.2)">h</text><text xml:space="preserve" font-family="ProximaNova-Semibold,Proxima Nova" font-weight="bold" font-size="28.0" fill="#3D3E38" transform="matrix(1.00, 0.00, -0.00, -1.00, 204.9, 398.2)">e</text><text xml:space="preserve" font-family="ProximaNova-Semibold,Proxima Nova" font-weight="bold" font-size="28.0" fill="#3D3E38" transform="matrix(1.00, 0.00, -0.00, -1.00, 220.5, 398.2)">d</text><text xml:space="preserve" font-family="ProximaNova-Semibold,Proxima Nova" font-weight="bold" font-size="28.0" fill="#3D3E38" transform="matrix(1.00, 0.00, -0.00, -1.00, 236.7, 398.2)">u</text><text xml:space="preserve" font-family="ProximaNova-Semibold,Proxima Nova" font-weight="bold" font-size="28.0" fill="#3D3E38" transform="matrix(1.00, 0.00, -0.00, -1.00, 252.6, 398.2)">l</text><text xml:space="preserve" font-family="ProximaNova-Semibold,Proxima Nova" font-weight="bold" font-size="28.0" fill="#3D3E38" transform="matrix(1.00, 0.00, -0.00, -1.00, 259.3, 398.2)">e</text><text xml:space="preserve" font-family="ProximaNova-Semibold,Proxima Nova" font-weight="bold" font-size="28.0" fill="#3D3E38" transform="matrix(1.00, 0.00, -0.00, -1.00, 274.9, 398.2)">d</text><text xml:space="preserve" font-family="ProximaNova-Semibold,Proxima Nova" font-weight="bold" font-size="28.0" fill="#3D3E38" transform="matrix(1.00, 0.00, -0.00, -1.00, 291.2, 398.2)">C</text><text xml:space="preserve" font-family="ProximaNova-Semibold,Proxima Nova" font-weight="bold" font-size="28.0" fill="#3D3E38" transform="matrix(1.00, 0.00, -0.00, -1.00, 310.3, 398.2)">o</text><text xml:space="preserve" font-family="ProximaNova-Semibold,Proxima Nova" font-weight="bold" font-size="28.0" fill="#3D3E38" transform="matrix(1.00, 0.00, -0.00, -1.00, 326.4, 398.2)">m</text><text xml:space="preserve" font-family="ProximaNova-Semibold,Proxima Nova" font-weight="bold" font-size="28.0" fill="#3D3E38" transform="matrix(1.00, 0.00, -0.00, -1.00, 349.7, 398.2)">m</text><text xml:space="preserve" font-family="ProximaNova-Semibold,Proxima Nova" font-weight="bold" font-size="28.0" fill="#3D3E38" transform="matrix(1.00, 0.00, -0.00, -1.00, 373.1, 398.2)">a</text><text xml:space="preserve" font-family="ProximaNova-Semibold,Proxima Nova" font-weight="bold" font-size="28.0" fill="#3D3E38" transform="matrix(1.00, 0.00, -0.00, -1.00, 388.1, 398.2)">n</text><text xml:space="preserve" font-family="ProximaNova-Semibold,Proxima Nova" font-weight="bold" font-size="28.0" fill="#3D3E38" transform="matrix(1.00, 0.00, -0.00, -1.00, 404.0, 398.2)">d</text></g></g><g><clipPath id="clip0x6180006aebe0"><path d="M 29.0 289.0 L 649.0 289.0 L 649.0 280.0 L 29.0 280.0 Z M 29.0 289.5 "></path></clipPath><g clip-path="url(#clip0x6180006aebe0)"><g><clipPath id="clip0x6180006aed60"><path d="M 28.0 279.5 L 650.0 279.5 L 650.0 290.5 L 28.0 290.5 Z M 28.0 279.5 "></path></clipPath><g clip-path="url(#clip0x6180006aed60)"><path d="M 29.0 280.0 L 649.0 280.0 L 649.0 289.0 L 29.0 289.0 Z M 29.0 280.0 " fill="url(#patternP1)"></path></g></g></g></g><g><clipPath id="clip0x6000006bc9e0"><path d="M 16.0 210.0 L 45.0 210.0 L 45.0 13.0 L 16.0 13.0 Z M 16.0 210.5 "></path></clipPath><g clip-path="url(#clip0x6000006bc9e0)"><g><clipPath id="clip0x6000006bcb60"><path d="M 15.0 12.5 L 46.0 12.5 L 46.0 211.5 L 15.0 211.5 Z M 15.0 12.5 "></path></clipPath><g clip-path="url(#clip0x6000006bcb60)"><image xlink:href="../../E673EC99-5ECE-4F6C-B4D1-6CAF8275746C/assets/89301C1B52D09B8D23371B239BEBF485.png" width="600.00" height="600.00" transform="matrix(0.50, 0.00, -0.00, -0.50, 16.0, 210.0)"></image></g></g></g></g><g><clipPath id="clip0x6100006aa980"><path d="M 13.0 372.0 L 32.0 372.0 L 32.0 175.0 L 13.0 175.0 Z M 13.0 371.9 "></path></clipPath><g clip-path="url(#clip0x6100006aa980)"><g><clipPath id="clip0x6100006aab00"><path d="M 12.0 173.9 L 33.0 173.9 L 33.0 372.9 L 12.0 372.9 Z M 12.0 173.9 "></path></clipPath><g clip-path="url(#clip0x6100006aab00)"><image xlink:href="../../E673EC99-5ECE-4F6C-B4D1-6CAF8275746C/assets/89301C1B52D09B8D23371B239BEBF485.png" width="600.00" height="600.00" transform="matrix(0.50, 0.00, -0.00, -0.50, 13.0, 372.0)"></image></g></g></g></g></g></svg>