<?xml version="1.0" encoding="UTF-8" standalone="no"?><svg xmlns="http://www.w3.org/2000/svg" xmlns:xlink="http://www.w3.org/1999/xlink" clip-rule="evenodd" stroke-miterlimit="10" viewBox="0 0 842 62"><desc>SVG generated by Keynote</desc><defs></defs><g transform="matrix(1.00, 0.00, -0.00, -1.00, 0.0, 62.0)"><g><clipPath id="clip0x6180006acd80"><path d="M 0.5 0.1 L 747.5 0.1 L 747.5 61.7 L 0.5 61.7 Z M 0.5 0.1 "></path></clipPath><g clip-path="url(#clip0x6180006acd80)"><path d="M 2.0 61.0 L 747.0 61.0 L 747.0 1.0 L 2.0 1.0 Z M 1.5 60.7 " fill="#FBC05A" fill-opacity="0.40"></path></g></g><g><clipPath id="clip0x6180006acfc0"><path d="M 13.0 9.4 L 843.0 9.4 L 843.0 57.4 L 13.0 57.4 Z M 13.0 9.4 "></path></clipPath><g clip-path="url(#clip0x6180006acfc0)"><text xml:space="preserve" font-family="ProximaNova-Regular,Proxima Nova" font-size="28.0" fill="#3D3E38" transform="matrix(1.00, 0.00, -0.00, -1.00, 20.0, 22.3)">1</text><text xml:space="preserve" font-family="ProximaNova-Regular,Proxima Nova" font-size="28.0" fill="#3D3E38" transform="matrix(1.00, 0.00, -0.00, -1.00, 29.5, 22.3)">.</text><text xml:space="preserve" font-family="ProximaNova-Regular,Proxima Nova" font-size="28.0" fill="#3D3E38" transform="matrix(1.00, 0.00, -0.00, -1.00, 36.0, 22.3)"> </text><text xml:space="preserve" font-family="ProximaNova-Regular,Proxima Nova" font-size="28.0" fill="#3D3E38" transform="matrix(1.00, 0.00, -0.00, -1.00, 66.0, 22.3)">U</text><text xml:space="preserve" font-family="ProximaNova-Regular,Proxima Nova" font-size="28.0" fill="#3D3E38" transform="matrix(1.00, 0.00, -0.00, -1.00, 85.6, 22.3)">s</text><text xml:space="preserve" font-family="ProximaNova-Regular,Proxima Nova" font-size="28.0" fill="#3D3E38" transform="matrix(1.00, 0.00, -0.00, -1.00, 98.7, 22.3)">e</text><text xml:space="preserve" font-family="ProximaNova-Regular,Proxima Nova" font-size="28.0" fill="#3D3E38" transform="matrix(1.00, 0.00, -0.00, -1.00, 114.4, 22.3)"> </text><text xml:space="preserve" font-family="ProximaNova-Semibold,Proxima Nova" font-weight="bold" font-size="28.0" fill="#3D3E38" transform="matrix(1.00, 0.00, -0.00, -1.00, 121.7, 22.3)">a</text><text xml:space="preserve" font-family="ProximaNova-Semibold,Proxima Nova" font-weight="bold" font-size="28.0" fill="#3D3E38" transform="matrix(1.00, 0.00, -0.00, -1.00, 136.7, 22.3)">r</text><text xml:space="preserve" font-family="ProximaNova-Semibold,Proxima Nova" font-weight="bold" font-size="28.0" fill="#3D3E38" transform="matrix(1.00, 0.00, -0.00, -1.00, 146.4, 22.3)">t</text><text xml:space="preserve" font-family="ProximaNova-Semibold,Proxima Nova" font-weight="bold" font-size="28.0" fill="#3D3E38" transform="matrix(1.00, 0.00, -0.00, -1.00, 155.4, 22.3)">i</text><text xml:space="preserve" font-family="ProximaNova-Semibold,Proxima Nova" font-weight="bold" font-size="28.0" fill="#3D3E38" transform="matrix(1.00, 0.00, -0.00, -1.00, 162.1, 22.3)">s</text><text xml:space="preserve" font-family="ProximaNova-Semibold,Proxima Nova" font-weight="bold" font-size="28.0" fill="#3D3E38" transform="matrix(1.00, 0.00, -0.00, -1.00, 175.3, 22.3)">a</text><text xml:space="preserve" font-family="ProximaNova-Semibold,Proxima Nova" font-weight="bold" font-size="28.0" fill="#3D3E38" transform="matrix(1.00, 0.00, -0.00, -1.00, 190.4, 22.3)">n</text><text xml:space="preserve" font-family="ProximaNova-Semibold,Proxima Nova" font-weight="bold" font-size="28.0" fill="#3D3E38" transform="matrix(1.00, 0.00, -0.00, -1.00, 206.3, 22.3)"> </text><text xml:space="preserve" font-family="ProximaNova-Semibold,Proxima Nova" font-weight="bold" font-size="28.0" fill="#3D3E38" transform="matrix(1.00, 0.00, -0.00, -1.00, 213.5, 22.3)">s</text><text xml:space="preserve" font-family="ProximaNova-Semibold,Proxima Nova" font-weight="bold" font-size="28.0" fill="#3D3E38" transform="matrix(1.00, 0.00, -0.00, -1.00, 226.7, 22.3)">c</text><text xml:space="preserve" font-family="ProximaNova-Semibold,Proxima Nova" font-weight="bold" font-size="28.0" fill="#3D3E38" transform="matrix(1.00, 0.00, -0.00, -1.00, 240.6, 22.3)">h</text><text xml:space="preserve" font-family="ProximaNova-Semibold,Proxima Nova" font-weight="bold" font-size="28.0" fill="#3D3E38" transform="matrix(1.00, 0.00, -0.00, -1.00, 256.5, 22.3)">e</text><text xml:space="preserve" font-family="ProximaNova-Semibold,Proxima Nova" font-weight="bold" font-size="28.0" fill="#3D3E38" transform="matrix(1.00, 0.00, -0.00, -1.00, 272.1, 22.3)">d</text><text xml:space="preserve" font-family="ProximaNova-Semibold,Proxima Nova" font-weight="bold" font-size="28.0" fill="#3D3E38" transform="matrix(1.00, 0.00, -0.00, -1.00, 288.4, 22.3)">u</text><text xml:space="preserve" font-family="ProximaNova-Semibold,Proxima Nova" font-weight="bold" font-size="28.0" fill="#3D3E38" transform="matrix(1.00, 0.00, -0.00, -1.00, 304.3, 22.3)">l</text><text xml:space="preserve" font-family="ProximaNova-Semibold,Proxima Nova" font-weight="bold" font-size="28.0" fill="#3D3E38" transform="matrix(1.00, 0.00, -0.00, -1.00, 311.0, 22.3)">e</text><text xml:space="preserve" font-family="ProximaNova-Semibold,Proxima Nova" font-weight="bold" font-size="28.0" fill="#3D3E38" transform="matrix(1.00, 0.00, -0.00, -1.00, 326.6, 22.3)">d</text><text xml:space="preserve" font-family="ProximaNova-Semibold,Proxima Nova" font-weight="bold" font-size="28.0" fill="#3D3E38" transform="matrix(1.00, 0.00, -0.00, -1.00, 342.9, 22.3)">:</text><text xml:space="preserve" font-family="ProximaNova-Semibold,Proxima Nova" font-weight="bold" font-size="28.0" fill="#3D3E38" transform="matrix(1.00, 0.00, -0.00, -1.00, 349.5, 22.3)">m</text><text xml:space="preserve" font-family="ProximaNova-Semibold,Proxima Nova" font-weight="bold" font-size="28.0" fill="#3D3E38" transform="matrix(1.00, 0.00, -0.00, -1.00, 372.9, 22.3)">a</text><text xml:space="preserve" font-family="ProximaNova-Semibold,Proxima Nova" font-weight="bold" font-size="28.0" fill="#3D3E38" transform="matrix(1.00, 0.00, -0.00, -1.00, 387.9, 22.3)">k</text><text xml:space="preserve" font-family="ProximaNova-Semibold,Proxima Nova" font-weight="bold" font-size="28.0" fill="#3D3E38" transform="matrix(1.00, 0.00, -0.00, -1.00, 402.5, 22.3)">e</text></g></g></g></svg>