<?xml version="1.0" encoding="UTF-8" standalone="no"?><svg xmlns="http://www.w3.org/2000/svg" xmlns:xlink="http://www.w3.org/1999/xlink" clip-rule="evenodd" stroke-miterlimit="10" viewBox="0 0 1024 768"><desc>SVG generated by Keynote</desc><defs><pattern id="patternP1" patternUnits="userSpaceOnUse" width="600" height="600" viewBox="0 0 600 600"><image xlink:href="../../E673EC99-5ECE-4F6C-B4D1-6CAF8275746C/assets/89301C1B52D09B8D23371B239BEBF485.png" width="600.00" height="600.00"></image></pattern></defs><g transform="matrix(1.00, 0.00, -0.00, -1.00, 0.0, 768.0)"><path d="M 0.0 768.0 L 1024.0 768.0 L 1024.0 0.0 L 0.0 0.0 Z M 0.0 768.0 " fill="#F6F5E8"></path><path d="M -1.0 767.0 L 1025.0 767.0 L 1025.0 678.0 L -1.0 678.0 Z M -1.0 767.5 " fill="#FEFFFE"></path><text xml:space="preserve" font-family="ProximaNova-Regular,Proxima Nova" font-size="36.0" fill="#DF7E3E" transform="matrix(1.00, 0.00, -0.00, -1.00, 30.0, 708.6)">S</text><text xml:space="preserve" font-family="ProximaNova-Regular,Proxima Nova" font-size="36.0" fill="#DF7E3E" transform="matrix(1.00, 0.00, -0.00, -1.00, 51.1, 708.6)">c</text><text xml:space="preserve" font-family="ProximaNova-Regular,Proxima Nova" font-size="36.0" fill="#DF7E3E" transform="matrix(1.00, 0.00, -0.00, -1.00, 69.0, 708.6)">h</text><text xml:space="preserve" font-family="ProximaNova-Regular,Proxima Nova" font-size="36.0" fill="#DF7E3E" transform="matrix(1.00, 0.00, -0.00, -1.00, 88.8, 708.6)">e</text><text xml:space="preserve" font-family="ProximaNova-Regular,Proxima Nova" font-size="36.0" fill="#DF7E3E" transform="matrix(1.00, 0.00, -0.00, -1.00, 109.1, 708.6)">d</text><text xml:space="preserve" font-family="ProximaNova-Regular,Proxima Nova" font-size="36.0" fill="#DF7E3E" transform="matrix(1.00, 0.00, -0.00, -1.00, 129.8, 708.6)">u</text><text xml:space="preserve" font-family="ProximaNova-Regular,Proxima Nova" font-size="36.0" fill="#DF7E3E" transform="matrix(1.00, 0.00, -0.00, -1.00, 149.6, 708.6)">l</text><text xml:space="preserve" font-family="ProximaNova-Regular,Proxima Nova" font-size="36.0" fill="#DF7E3E" transform="matrix(1.00, 0.00, -0.00, -1.00, 157.7, 708.6)">i</text><text xml:space="preserve" font-family="ProximaNova-Regular,Proxima Nova" font-size="36.0" fill="#DF7E3E" transform="matrix(1.00, 0.00, -0.00, -1.00, 165.8, 708.6)">n</text><text xml:space="preserve" font-family="ProximaNova-Regular,Proxima Nova" font-size="36.0" fill="#DF7E3E" transform="matrix(1.00, 0.00, -0.00, -1.00, 185.7, 708.6)">g</text><text xml:space="preserve" font-family="ProximaNova-Regular,Proxima Nova" font-size="36.0" fill="#DF7E3E" transform="matrix(1.00, 0.00, -0.00, -1.00, 206.4, 708.6)"> </text><text xml:space="preserve" font-family="ProximaNova-Regular,Proxima Nova" font-size="36.0" fill="#DF7E3E" transform="matrix(1.00, 0.00, -0.00, -1.00, 215.7, 708.6)">C</text><text xml:space="preserve" font-family="ProximaNova-Regular,Proxima Nova" font-size="36.0" fill="#DF7E3E" transform="matrix(1.00, 0.00, -0.00, -1.00, 240.1, 708.6)">o</text><text xml:space="preserve" font-family="ProximaNova-Regular,Proxima Nova" font-size="36.0" fill="#DF7E3E" transform="matrix(1.00, 0.00, -0.00, -1.00, 260.7, 708.6)">m</text><text xml:space="preserve" font-family="ProximaNova-Regular,Proxima Nova" font-size="36.0" fill="#DF7E3E" transform="matrix(1.00, 0.00, -0.00, -1.00, 289.7, 708.6)">m</text><text xml:space="preserve" font-family="ProximaNova-Regular,Proxima Nova" font-size="36.0" fill="#DF7E3E" transform="matrix(1.00, 0.00, -0.00, -1.00, 318.8, 708.6)">a</text><text xml:space="preserve" font-family="ProximaNova-Regular,Proxima Nova" font-size="36.0" fill="#DF7E3E" transform="matrix(1.00, 0.00, -0.00, -1.00, 337.8, 708.6)">n</text><text xml:space="preserve" font-family="ProximaNova-Regular,Proxima Nova" font-size="36.0" fill="#DF7E3E" transform="matrix(1.00, 0.00, -0.00, -1.00, 357.7, 708.6)">d</text><text xml:space="preserve" font-family="ProximaNova-Regular,Proxima Nova" font-size="36.0" fill="#DF7E3E" transform="matrix(1.00, 0.00, -0.00, -1.00, 378.4, 708.6)">s</text><g><clipPath id="clip0x6100006aea00"><path d="M 52.5 31.1 L 799.5 31.1 L 799.5 92.7 L 52.5 92.7 Z M 52.5 31.1 "></path></clipPath><g clip-path="url(#clip0x6100006aea00)"><path d="M 54.0 92.0 L 799.0 92.0 L 799.0 32.0 L 54.0 32.0 Z M 53.5 91.7 " fill="#FBC05A" fill-opacity="0.40"></path></g></g><g><clipPath id="clip0x6100006aec40"><path d="M 65.0 39.3 L 895.0 39.3 L 895.0 87.3 L 65.0 87.3 Z M 65.0 39.3 "></path></clipPath><g clip-path="url(#clip0x6100006aec40)"><text xml:space="preserve" font-family="ProximaNova-Regular,Proxima Nova" font-size="28.0" fill="#3D3E38" transform="matrix(1.00, 0.00, -0.00, -1.00, 72.0, 52.2)">3</text><text xml:space="preserve" font-family="ProximaNova-Regular,Proxima Nova" font-size="28.0" fill="#3D3E38" transform="matrix(1.00, 0.00, -0.00, -1.00, 87.6, 52.2)">.</text><text xml:space="preserve" font-family="ProximaNova-Regular,Proxima Nova" font-size="28.0" fill="#3D3E38" transform="matrix(1.00, 0.00, -0.00, -1.00, 94.1, 52.2)"> </text><text xml:space="preserve" font-family="ProximaNova-Regular,Proxima Nova" font-size="28.0" fill="#3D3E38" transform="matrix(1.00, 0.00, -0.00, -1.00, 118.0, 52.2)">I</text><text xml:space="preserve" font-family="ProximaNova-Regular,Proxima Nova" font-size="28.0" fill="#3D3E38" transform="matrix(1.00, 0.00, -0.00, -1.00, 124.7, 52.2)">m</text><text xml:space="preserve" font-family="ProximaNova-Regular,Proxima Nova" font-size="28.0" fill="#3D3E38" transform="matrix(1.00, 0.00, -0.00, -1.00, 147.3, 52.2)">p</text><text xml:space="preserve" font-family="ProximaNova-Regular,Proxima Nova" font-size="28.0" fill="#3D3E38" transform="matrix(1.00, 0.00, -0.00, -1.00, 163.3, 52.2)">l</text><text xml:space="preserve" font-family="ProximaNova-Regular,Proxima Nova" font-size="28.0" fill="#3D3E38" transform="matrix(1.00, 0.00, -0.00, -1.00, 169.6, 52.2)">e</text><text xml:space="preserve" font-family="ProximaNova-Regular,Proxima Nova" font-size="28.0" fill="#3D3E38" transform="matrix(1.00, 0.00, -0.00, -1.00, 185.4, 52.2)">m</text><text xml:space="preserve" font-family="ProximaNova-Regular,Proxima Nova" font-size="28.0" fill="#3D3E38" transform="matrix(1.00, 0.00, -0.00, -1.00, 208.0, 52.2)">e</text><text xml:space="preserve" font-family="ProximaNova-Regular,Proxima Nova" font-size="28.0" fill="#3D3E38" transform="matrix(1.00, 0.00, -0.00, -1.00, 223.8, 52.2)">n</text><text xml:space="preserve" font-family="ProximaNova-Regular,Proxima Nova" font-size="28.0" fill="#3D3E38" transform="matrix(1.00, 0.00, -0.00, -1.00, 239.2, 52.2)">t</text><text xml:space="preserve" font-family="ProximaNova-Regular,Proxima Nova" font-size="28.0" fill="#3D3E38" transform="matrix(1.00, 0.00, -0.00, -1.00, 247.5, 52.2)"> </text><text xml:space="preserve" font-family="ProximaNova-Semibold,Proxima Nova" font-weight="bold" font-size="28.0" fill="#3D3E38" transform="matrix(1.00, 0.00, -0.00, -1.00, 254.7, 52.2)">S</text><text xml:space="preserve" font-family="ProximaNova-Semibold,Proxima Nova" font-weight="bold" font-size="28.0" fill="#3D3E38" transform="matrix(1.00, 0.00, -0.00, -1.00, 271.4, 52.2)">c</text><text xml:space="preserve" font-family="ProximaNova-Semibold,Proxima Nova" font-weight="bold" font-size="28.0" fill="#3D3E38" transform="matrix(1.00, 0.00, -0.00, -1.00, 285.3, 52.2)">h</text><text xml:space="preserve" font-family="ProximaNova-Semibold,Proxima Nova" font-weight="bold" font-size="28.0" fill="#3D3E38" transform="matrix(1.00, 0.00, -0.00, -1.00, 301.2, 52.2)">e</text><text xml:space="preserve" font-family="ProximaNova-Semibold,Proxima Nova" font-weight="bold" font-size="28.0" fill="#3D3E38" transform="matrix(1.00, 0.00, -0.00, -1.00, 316.8, 52.2)">d</text><text xml:space="preserve" font-family="ProximaNova-Semibold,Proxima Nova" font-weight="bold" font-size="28.0" fill="#3D3E38" transform="matrix(1.00, 0.00, -0.00, -1.00, 333.1, 52.2)">u</text><text xml:space="preserve" font-family="ProximaNova-Semibold,Proxima Nova" font-weight="bold" font-size="28.0" fill="#3D3E38" transform="matrix(1.00, 0.00, -0.00, -1.00, 349.0, 52.2)">l</text><text xml:space="preserve" font-family="ProximaNova-Semibold,Proxima Nova" font-weight="bold" font-size="28.0" fill="#3D3E38" transform="matrix(1.00, 0.00, -0.00, -1.00, 355.7, 52.2)">e</text><text xml:space="preserve" font-family="ProximaNova-Semibold,Proxima Nova" font-weight="bold" font-size="28.0" fill="#3D3E38" transform="matrix(1.00, 0.00, -0.00, -1.00, 371.3, 52.2)">d</text><text xml:space="preserve" font-family="ProximaNova-Semibold,Proxima Nova" font-weight="bold" font-size="28.0" fill="#3D3E38" transform="matrix(1.00, 0.00, -0.00, -1.00, 387.6, 52.2)">C</text><text xml:space="preserve" font-family="ProximaNova-Semibold,Proxima Nova" font-weight="bold" font-size="28.0" fill="#3D3E38" transform="matrix(1.00, 0.00, -0.00, -1.00, 406.7, 52.2)">o</text><text xml:space="preserve" font-family="ProximaNova-Semibold,Proxima Nova" font-weight="bold" font-size="28.0" fill="#3D3E38" transform="matrix(1.00, 0.00, -0.00, -1.00, 422.7, 52.2)">m</text><text xml:space="preserve" font-family="ProximaNova-Semibold,Proxima Nova" font-weight="bold" font-size="28.0" fill="#3D3E38" transform="matrix(1.00, 0.00, -0.00, -1.00, 446.1, 52.2)">m</text><text xml:space="preserve" font-family="ProximaNova-Semibold,Proxima Nova" font-weight="bold" font-size="28.0" fill="#3D3E38" transform="matrix(1.00, 0.00, -0.00, -1.00, 469.4, 52.2)">a</text><text xml:space="preserve" font-family="ProximaNova-Semibold,Proxima Nova" font-weight="bold" font-size="28.0" fill="#3D3E38" transform="matrix(1.00, 0.00, -0.00, -1.00, 484.5, 52.2)">n</text><text xml:space="preserve" font-family="ProximaNova-Semibold,Proxima Nova" font-weight="bold" font-size="28.0" fill="#3D3E38" transform="matrix(1.00, 0.00, -0.00, -1.00, 500.4, 52.2)">d</text><text xml:space="preserve" font-family="ProximaNova-Semibold,Proxima Nova" font-weight="bold" font-size="28.0" fill="#3D3E38" transform="matrix(1.00, 0.00, -0.00, -1.00, 516.6, 52.2)">I</text><text xml:space="preserve" font-family="ProximaNova-Semibold,Proxima Nova" font-weight="bold" font-size="28.0" fill="#3D3E38" transform="matrix(1.00, 0.00, -0.00, -1.00, 523.9, 52.2)">n</text><text xml:space="preserve" font-family="ProximaNova-Semibold,Proxima Nova" font-weight="bold" font-size="28.0" fill="#3D3E38" transform="matrix(1.00, 0.00, -0.00, -1.00, 539.8, 52.2)">t</text><text xml:space="preserve" font-family="ProximaNova-Semibold,Proxima Nova" font-weight="bold" font-size="28.0" fill="#3D3E38" transform="matrix(1.00, 0.00, -0.00, -1.00, 548.7, 52.2)">e</text><text xml:space="preserve" font-family="ProximaNova-Semibold,Proxima Nova" font-weight="bold" font-size="28.0" fill="#3D3E38" transform="matrix(1.00, 0.00, -0.00, -1.00, 564.3, 52.2)">r</text><text xml:space="preserve" font-family="ProximaNova-Semibold,Proxima Nova" font-weight="bold" font-size="28.0" fill="#3D3E38" transform="matrix(1.00, 0.00, -0.00, -1.00, 574.0, 52.2)">f</text><text xml:space="preserve" font-family="ProximaNova-Semibold,Proxima Nova" font-weight="bold" font-size="28.0" fill="#3D3E38" transform="matrix(1.00, 0.00, -0.00, -1.00, 582.7, 52.2)">a</text><text xml:space="preserve" font-family="ProximaNova-Semibold,Proxima Nova" font-weight="bold" font-size="28.0" fill="#3D3E38" transform="matrix(1.00, 0.00, -0.00, -1.00, 597.7, 52.2)">c</text><text xml:space="preserve" font-family="ProximaNova-Semibold,Proxima Nova" font-weight="bold" font-size="28.0" fill="#3D3E38" transform="matrix(1.00, 0.00, -0.00, -1.00, 611.7, 52.2)">e</text></g></g><g><clipPath id="clip0x6100006afc60"><path d="M 52.5 588.1 L 799.5 588.1 L 799.5 649.7 L 52.5 649.7 Z M 52.5 588.1 "></path></clipPath><g clip-path="url(#clip0x6100006afc60)"><path d="M 54.0 649.0 L 799.0 649.0 L 799.0 589.0 L 54.0 589.0 Z M 53.5 648.7 " fill="#FBC05A" fill-opacity="0.40"></path></g></g><g><clipPath id="clip0x6100006afea0"><path d="M 65.0 597.4 L 895.0 597.4 L 895.0 645.4 L 65.0 645.4 Z M 65.0 597.4 "></path></clipPath><g clip-path="url(#clip0x6100006afea0)"><text xml:space="preserve" font-family="ProximaNova-Regular,Proxima Nova" font-size="28.0" fill="#3D3E38" transform="matrix(1.00, 0.00, -0.00, -1.00, 72.0, 610.3)">1</text><text xml:space="preserve" font-family="ProximaNova-Regular,Proxima Nova" font-size="28.0" fill="#3D3E38" transform="matrix(1.00, 0.00, -0.00, -1.00, 81.5, 610.3)">.</text><text xml:space="preserve" font-family="ProximaNova-Regular,Proxima Nova" font-size="28.0" fill="#3D3E38" transform="matrix(1.00, 0.00, -0.00, -1.00, 88.0, 610.3)"> </text><text xml:space="preserve" font-family="ProximaNova-Regular,Proxima Nova" font-size="28.0" fill="#3D3E38" transform="matrix(1.00, 0.00, -0.00, -1.00, 118.0, 610.3)">U</text><text xml:space="preserve" font-family="ProximaNova-Regular,Proxima Nova" font-size="28.0" fill="#3D3E38" transform="matrix(1.00, 0.00, -0.00, -1.00, 137.6, 610.3)">s</text><text xml:space="preserve" font-family="ProximaNova-Regular,Proxima Nova" font-size="28.0" fill="#3D3E38" transform="matrix(1.00, 0.00, -0.00, -1.00, 150.7, 610.3)">e</text><text xml:space="preserve" font-family="ProximaNova-Regular,Proxima Nova" font-size="28.0" fill="#3D3E38" transform="matrix(1.00, 0.00, -0.00, -1.00, 166.4, 610.3)"> </text><text xml:space="preserve" font-family="ProximaNova-Semibold,Proxima Nova" font-weight="bold" font-size="28.0" fill="#3D3E38" transform="matrix(1.00, 0.00, -0.00, -1.00, 173.7, 610.3)">a</text><text xml:space="preserve" font-family="ProximaNova-Semibold,Proxima Nova" font-weight="bold" font-size="28.0" fill="#3D3E38" transform="matrix(1.00, 0.00, -0.00, -1.00, 188.7, 610.3)">r</text><text xml:space="preserve" font-family="ProximaNova-Semibold,Proxima Nova" font-weight="bold" font-size="28.0" fill="#3D3E38" transform="matrix(1.00, 0.00, -0.00, -1.00, 198.4, 610.3)">t</text><text xml:space="preserve" font-family="ProximaNova-Semibold,Proxima Nova" font-weight="bold" font-size="28.0" fill="#3D3E38" transform="matrix(1.00, 0.00, -0.00, -1.00, 207.4, 610.3)">i</text><text xml:space="preserve" font-family="ProximaNova-Semibold,Proxima Nova" font-weight="bold" font-size="28.0" fill="#3D3E38" transform="matrix(1.00, 0.00, -0.00, -1.00, 214.1, 610.3)">s</text><text xml:space="preserve" font-family="ProximaNova-Semibold,Proxima Nova" font-weight="bold" font-size="28.0" fill="#3D3E38" transform="matrix(1.00, 0.00, -0.00, -1.00, 227.3, 610.3)">a</text><text xml:space="preserve" font-family="ProximaNova-Semibold,Proxima Nova" font-weight="bold" font-size="28.0" fill="#3D3E38" transform="matrix(1.00, 0.00, -0.00, -1.00, 242.4, 610.3)">n</text><text xml:space="preserve" font-family="ProximaNova-Semibold,Proxima Nova" font-weight="bold" font-size="28.0" fill="#3D3E38" transform="matrix(1.00, 0.00, -0.00, -1.00, 258.3, 610.3)"> </text><text xml:space="preserve" font-family="ProximaNova-Semibold,Proxima Nova" font-weight="bold" font-size="28.0" fill="#3D3E38" transform="matrix(1.00, 0.00, -0.00, -1.00, 265.5, 610.3)">s</text><text xml:space="preserve" font-family="ProximaNova-Semibold,Proxima Nova" font-weight="bold" font-size="28.0" fill="#3D3E38" transform="matrix(1.00, 0.00, -0.00, -1.00, 278.7, 610.3)">c</text><text xml:space="preserve" font-family="ProximaNova-Semibold,Proxima Nova" font-weight="bold" font-size="28.0" fill="#3D3E38" transform="matrix(1.00, 0.00, -0.00, -1.00, 292.6, 610.3)">h</text><text xml:space="preserve" font-family="ProximaNova-Semibold,Proxima Nova" font-weight="bold" font-size="28.0" fill="#3D3E38" transform="matrix(1.00, 0.00, -0.00, -1.00, 308.5, 610.3)">e</text><text xml:space="preserve" font-family="ProximaNova-Semibold,Proxima Nova" font-weight="bold" font-size="28.0" fill="#3D3E38" transform="matrix(1.00, 0.00, -0.00, -1.00, 324.1, 610.3)">d</text><text xml:space="preserve" font-family="ProximaNova-Semibold,Proxima Nova" font-weight="bold" font-size="28.0" fill="#3D3E38" transform="matrix(1.00, 0.00, -0.00, -1.00, 340.4, 610.3)">u</text><text xml:space="preserve" font-family="ProximaNova-Semibold,Proxima Nova" font-weight="bold" font-size="28.0" fill="#3D3E38" transform="matrix(1.00, 0.00, -0.00, -1.00, 356.3, 610.3)">l</text><text xml:space="preserve" font-family="ProximaNova-Semibold,Proxima Nova" font-weight="bold" font-size="28.0" fill="#3D3E38" transform="matrix(1.00, 0.00, -0.00, -1.00, 363.0, 610.3)">e</text><text xml:space="preserve" font-family="ProximaNova-Semibold,Proxima Nova" font-weight="bold" font-size="28.0" fill="#3D3E38" transform="matrix(1.00, 0.00, -0.00, -1.00, 378.6, 610.3)">d</text><text xml:space="preserve" font-family="ProximaNova-Semibold,Proxima Nova" font-weight="bold" font-size="28.0" fill="#3D3E38" transform="matrix(1.00, 0.00, -0.00, -1.00, 394.9, 610.3)">:</text><text xml:space="preserve" font-family="ProximaNova-Semibold,Proxima Nova" font-weight="bold" font-size="28.0" fill="#3D3E38" transform="matrix(1.00, 0.00, -0.00, -1.00, 401.5, 610.3)">m</text><text xml:space="preserve" font-family="ProximaNova-Semibold,Proxima Nova" font-weight="bold" font-size="28.0" fill="#3D3E38" transform="matrix(1.00, 0.00, -0.00, -1.00, 424.9, 610.3)">a</text><text xml:space="preserve" font-family="ProximaNova-Semibold,Proxima Nova" font-weight="bold" font-size="28.0" fill="#3D3E38" transform="matrix(1.00, 0.00, -0.00, -1.00, 439.9, 610.3)">k</text><text xml:space="preserve" font-family="ProximaNova-Semibold,Proxima Nova" font-weight="bold" font-size="28.0" fill="#3D3E38" transform="matrix(1.00, 0.00, -0.00, -1.00, 454.5, 610.3)">e</text></g></g><path d="M 0.0 0.5 L 1024.0 0.5 " fill="none" stroke="#C6C7BE" stroke-width="1.00" transform="matrix(1.00, 0.00, 0.00, -1.00, -0.0, 679.0)"></path><g><clipPath id="clip0x6100006b0c20"><path d="M 54.0 121.1 L 801.0 121.1 L 801.0 501.7 L 54.0 501.7 Z M 54.0 121.1 "></path></clipPath><g clip-path="url(#clip0x6100006b0c20)"><path d="M 55.0 501.0 L 800.0 501.0 L 800.0 122.0 L 55.0 122.0 Z M 55.0 500.7 " fill="#383838"></path></g></g><g><clipPath id="clip0x6100006b0e60"><path d="M 79.8 138.3 L 686.6 138.3 L 686.6 482.5 L 79.8 482.5 Z M 79.8 138.3 "></path></clipPath><g clip-path="url(#clip0x6100006b0e60)"><image xlink:href="../../E673EC99-5ECE-4F6C-B4D1-6CAF8275746C/assets/85FE6F57873560DCE3DD3F48CB933E84.png" width="906.00" height="514.00" transform="matrix(0.67, 0.00, -0.00, -0.67, 79.8, 482.5)"></image></g></g><g><clipPath id="clip0x6000006bcec0"><path d="M 52.5 498.7 L 799.5 498.7 L 799.5 560.3 L 52.5 560.3 Z M 52.5 498.7 "></path></clipPath><g clip-path="url(#clip0x6000006bcec0)"><path d="M 54.0 559.0 L 799.0 559.0 L 799.0 500.0 L 54.0 500.0 Z M 53.5 559.3 " fill="#FBC05A" fill-opacity="0.40"></path></g></g><g><clipPath id="clip0x6000006bd0a0"><path d="M 65.0 506.3 L 895.0 506.3 L 895.0 554.3 L 65.0 554.3 Z M 65.0 506.3 "></path></clipPath><g clip-path="url(#clip0x6000006bd0a0)"><text xml:space="preserve" font-family="ProximaNova-Regular,Proxima Nova" font-size="28.0" fill="#3D3E38" transform="matrix(1.00, 0.00, -0.00, -1.00, 72.0, 519.2)">2</text><text xml:space="preserve" font-family="ProximaNova-Regular,Proxima Nova" font-size="28.0" fill="#3D3E38" transform="matrix(1.00, 0.00, -0.00, -1.00, 88.5, 519.2)">.</text><text xml:space="preserve" font-family="ProximaNova-Regular,Proxima Nova" font-size="28.0" fill="#3D3E38" transform="matrix(1.00, 0.00, -0.00, -1.00, 94.9, 519.2)"> </text><text xml:space="preserve" font-family="ProximaNova-Regular,Proxima Nova" font-size="28.0" fill="#3D3E38" transform="matrix(1.00, 0.00, -0.00, -1.00, 118.0, 519.2)">E</text><text xml:space="preserve" font-family="ProximaNova-Regular,Proxima Nova" font-size="28.0" fill="#3D3E38" transform="matrix(1.00, 0.00, -0.00, -1.00, 133.9, 519.2)">x</text><text xml:space="preserve" font-family="ProximaNova-Regular,Proxima Nova" font-size="28.0" fill="#3D3E38" transform="matrix(1.00, 0.00, -0.00, -1.00, 147.6, 519.2)">t</text><text xml:space="preserve" font-family="ProximaNova-Regular,Proxima Nova" font-size="28.0" fill="#3D3E38" transform="matrix(1.00, 0.00, -0.00, -1.00, 155.8, 519.2)">e</text><text xml:space="preserve" font-family="ProximaNova-Regular,Proxima Nova" font-size="28.0" fill="#3D3E38" transform="matrix(1.00, 0.00, -0.00, -1.00, 171.6, 519.2)">n</text><text xml:space="preserve" font-family="ProximaNova-Regular,Proxima Nova" font-size="28.0" fill="#3D3E38" transform="matrix(1.00, 0.00, -0.00, -1.00, 187.0, 519.2)">d</text><text xml:space="preserve" font-family="ProximaNova-Regular,Proxima Nova" font-size="28.0" fill="#3D3E38" transform="matrix(1.00, 0.00, -0.00, -1.00, 203.1, 519.2)"> </text><text xml:space="preserve" font-family="ProximaNova-Semibold,Proxima Nova" font-weight="bold" font-size="28.0" fill="#3D3E38" transform="matrix(1.00, 0.00, -0.00, -1.00, 210.4, 519.2)">S</text><text xml:space="preserve" font-family="ProximaNova-Semibold,Proxima Nova" font-weight="bold" font-size="28.0" fill="#3D3E38" transform="matrix(1.00, 0.00, -0.00, -1.00, 227.0, 519.2)">c</text><text xml:space="preserve" font-family="ProximaNova-Semibold,Proxima Nova" font-weight="bold" font-size="28.0" fill="#3D3E38" transform="matrix(1.00, 0.00, -0.00, -1.00, 241.0, 519.2)">h</text><text xml:space="preserve" font-family="ProximaNova-Semibold,Proxima Nova" font-weight="bold" font-size="28.0" fill="#3D3E38" transform="matrix(1.00, 0.00, -0.00, -1.00, 256.9, 519.2)">e</text><text xml:space="preserve" font-family="ProximaNova-Semibold,Proxima Nova" font-weight="bold" font-size="28.0" fill="#3D3E38" transform="matrix(1.00, 0.00, -0.00, -1.00, 272.5, 519.2)">d</text><text xml:space="preserve" font-family="ProximaNova-Semibold,Proxima Nova" font-weight="bold" font-size="28.0" fill="#3D3E38" transform="matrix(1.00, 0.00, -0.00, -1.00, 288.7, 519.2)">u</text><text xml:space="preserve" font-family="ProximaNova-Semibold,Proxima Nova" font-weight="bold" font-size="28.0" fill="#3D3E38" transform="matrix(1.00, 0.00, -0.00, -1.00, 304.6, 519.2)">l</text><text xml:space="preserve" font-family="ProximaNova-Semibold,Proxima Nova" font-weight="bold" font-size="28.0" fill="#3D3E38" transform="matrix(1.00, 0.00, -0.00, -1.00, 311.3, 519.2)">e</text><text xml:space="preserve" font-family="ProximaNova-Semibold,Proxima Nova" font-weight="bold" font-size="28.0" fill="#3D3E38" transform="matrix(1.00, 0.00, -0.00, -1.00, 326.9, 519.2)">d</text><text xml:space="preserve" font-family="ProximaNova-Semibold,Proxima Nova" font-weight="bold" font-size="28.0" fill="#3D3E38" transform="matrix(1.00, 0.00, -0.00, -1.00, 343.2, 519.2)">C</text><text xml:space="preserve" font-family="ProximaNova-Semibold,Proxima Nova" font-weight="bold" font-size="28.0" fill="#3D3E38" transform="matrix(1.00, 0.00, -0.00, -1.00, 362.3, 519.2)">o</text><text xml:space="preserve" font-family="ProximaNova-Semibold,Proxima Nova" font-weight="bold" font-size="28.0" fill="#3D3E38" transform="matrix(1.00, 0.00, -0.00, -1.00, 378.4, 519.2)">m</text><text xml:space="preserve" font-family="ProximaNova-Semibold,Proxima Nova" font-weight="bold" font-size="28.0" fill="#3D3E38" transform="matrix(1.00, 0.00, -0.00, -1.00, 401.7, 519.2)">m</text><text xml:space="preserve" font-family="ProximaNova-Semibold,Proxima Nova" font-weight="bold" font-size="28.0" fill="#3D3E38" transform="matrix(1.00, 0.00, -0.00, -1.00, 425.1, 519.2)">a</text><text xml:space="preserve" font-family="ProximaNova-Semibold,Proxima Nova" font-weight="bold" font-size="28.0" fill="#3D3E38" transform="matrix(1.00, 0.00, -0.00, -1.00, 440.1, 519.2)">n</text><text xml:space="preserve" font-family="ProximaNova-Semibold,Proxima Nova" font-weight="bold" font-size="28.0" fill="#3D3E38" transform="matrix(1.00, 0.00, -0.00, -1.00, 456.0, 519.2)">d</text></g></g><g><clipPath id="clip0x6000006bd760"><path d="M 81.0 410.0 L 701.0 410.0 L 701.0 401.0 L 81.0 401.0 Z M 81.0 410.5 "></path></clipPath><g clip-path="url(#clip0x6000006bd760)"><g><clipPath id="clip0x6000006bd8e0"><path d="M 80.0 400.5 L 702.0 400.5 L 702.0 411.5 L 80.0 411.5 Z M 80.0 400.5 "></path></clipPath><g clip-path="url(#clip0x6000006bd8e0)"><path d="M 81.0 401.0 L 701.0 401.0 L 701.0 410.0 L 81.0 410.0 Z M 81.0 401.0 " fill="url(#patternP1)"></path></g></g></g></g><g><clipPath id="clip0x6000006be120"><path d="M 68.0 331.0 L 97.0 331.0 L 97.0 134.0 L 68.0 134.0 Z M 68.0 331.5 "></path></clipPath><g clip-path="url(#clip0x6000006be120)"><g><clipPath id="clip0x6000006bde80"><path d="M 67.0 133.5 L 98.0 133.5 L 98.0 332.5 L 67.0 332.5 Z M 67.0 133.5 "></path></clipPath><g clip-path="url(#clip0x6000006bde80)"><image xlink:href="../../E673EC99-5ECE-4F6C-B4D1-6CAF8275746C/assets/89301C1B52D09B8D23371B239BEBF485.png" width="600.00" height="600.00" transform="matrix(0.50, 0.00, -0.00, -0.50, 68.0, 331.0)"></image></g></g></g></g><g><clipPath id="clip0x6180006afea0"><path d="M 65.0 493.0 L 84.0 493.0 L 84.0 296.0 L 65.0 296.0 Z M 65.0 492.9 "></path></clipPath><g clip-path="url(#clip0x6180006afea0)"><g><clipPath id="clip0x6180006b0020"><path d="M 64.0 294.9 L 85.0 294.9 L 85.0 493.9 L 64.0 493.9 Z M 64.0 294.9 "></path></clipPath><g clip-path="url(#clip0x6180006b0020)"><image xlink:href="../../E673EC99-5ECE-4F6C-B4D1-6CAF8275746C/assets/89301C1B52D09B8D23371B239BEBF485.png" width="600.00" height="600.00" transform="matrix(0.50, 0.00, -0.00, -0.50, 65.0, 493.0)"></image></g></g></g></g></g></svg>