<?xml version="1.0" encoding="UTF-8" standalone="no"?><svg xmlns="http://www.w3.org/2000/svg" xmlns:xlink="http://www.w3.org/1999/xlink" clip-rule="evenodd" stroke-miterlimit="10" viewBox="0 0 866 473"><desc>SVG generated by Keynote</desc><defs></defs><g transform="matrix(1.00, 0.00, -0.00, -1.00, 0.0, 473.0)"><g><clipPath id="clip0x6000008a9f60"><path d="M 0.5 0.2 L 525.5 0.2 L 525.5 473.0 L 0.5 473.0 Z M 0.5 0.2 "></path></clipPath><g clip-path="url(#clip0x6000008a9f60)"><path d="M 2.0 472.0 L 525.0 472.0 L 525.0 1.0 L 2.0 1.0 Z M 1.5 472.0 " fill="#FBC05A" fill-opacity="0.40"></path></g></g><g><clipPath id="clip0x6000008aa380"><path d="M 318.5 0.6 L 865.5 0.6 L 865.5 472.5 L 318.5 472.5 Z M 318.5 0.6 "></path></clipPath><g clip-path="url(#clip0x6000008aa380)"><path d="M 320.0 472.0 L 865.0 472.0 L 865.0 2.0 L 320.0 2.0 Z M 319.5 471.5 " fill="#383838"></path></g></g><g><clipPath id="clip0x6000008aa5c0"><path d="M -1.0 210.2 L 322.0 210.2 L 322.0 292.2 L -1.0 292.2 Z M -1.0 210.2 "></path></clipPath><g clip-path="url(#clip0x6000008aa5c0)"><text xml:space="preserve" font-family="ProximaNova-Regular,Proxima Nova" font-size="28.0" fill="#3D3E38" transform="matrix(1.00, 0.00, -0.00, -1.00, 64.2, 257.1)">W</text><text xml:space="preserve" font-family="ProximaNova-Regular,Proxima Nova" font-size="28.0" fill="#3D3E38" transform="matrix(1.00, 0.00, -0.00, -1.00, 88.9, 257.1)">i</text><text xml:space="preserve" font-family="ProximaNova-Regular,Proxima Nova" font-size="28.0" fill="#3D3E38" transform="matrix(1.00, 0.00, -0.00, -1.00, 95.2, 257.1)">t</text><text xml:space="preserve" font-family="ProximaNova-Regular,Proxima Nova" font-size="28.0" fill="#3D3E38" transform="matrix(1.00, 0.00, -0.00, -1.00, 103.4, 257.1)">h</text><text xml:space="preserve" font-family="ProximaNova-Regular,Proxima Nova" font-size="28.0" fill="#3D3E38" transform="matrix(1.00, 0.00, -0.00, -1.00, 118.9, 257.1)"> </text><text xml:space="preserve" font-family="ProximaNova-Regular,Proxima Nova" font-size="28.0" fill="#3D3E38" transform="matrix(1.00, 0.00, -0.00, -1.00, 126.2, 257.1)">a</text><text xml:space="preserve" font-family="ProximaNova-Regular,Proxima Nova" font-size="28.0" fill="#3D3E38" transform="matrix(1.00, 0.00, -0.00, -1.00, 140.9, 257.1)">r</text><text xml:space="preserve" font-family="ProximaNova-Regular,Proxima Nova" font-size="28.0" fill="#3D3E38" transform="matrix(1.00, 0.00, -0.00, -1.00, 150.2, 257.1)">g</text><text xml:space="preserve" font-family="ProximaNova-Regular,Proxima Nova" font-size="28.0" fill="#3D3E38" transform="matrix(1.00, 0.00, -0.00, -1.00, 166.3, 257.1)">u</text><text xml:space="preserve" font-family="ProximaNova-Regular,Proxima Nova" font-size="28.0" fill="#3D3E38" transform="matrix(1.00, 0.00, -0.00, -1.00, 181.7, 257.1)">m</text><text xml:space="preserve" font-family="ProximaNova-Regular,Proxima Nova" font-size="28.0" fill="#3D3E38" transform="matrix(1.00, 0.00, -0.00, -1.00, 204.3, 257.1)">e</text><text xml:space="preserve" font-family="ProximaNova-Regular,Proxima Nova" font-size="28.0" fill="#3D3E38" transform="matrix(1.00, 0.00, -0.00, -1.00, 220.1, 257.1)">n</text><text xml:space="preserve" font-family="ProximaNova-Regular,Proxima Nova" font-size="28.0" fill="#3D3E38" transform="matrix(1.00, 0.00, -0.00, -1.00, 235.6, 257.1)">t</text><text xml:space="preserve" font-family="ProximaNova-Regular,Proxima Nova" font-size="28.0" fill="#3D3E38" transform="matrix(1.00, 0.00, -0.00, -1.00, 243.8, 257.1)">s</text><text xml:space="preserve" font-family="ProximaNova-Regular,Proxima Nova" font-size="28.0" fill="#3D3E38" transform="matrix(1.00, 0.00, -0.00, -1.00, 256.8, 257.1)"> </text><text xml:space="preserve" font-family="LucidaGrande,Lucida Grande" font-size="28.0" fill="#3D3E38" transform="matrix(1.00, 0.00, -0.00, -1.00, 264.1, 257.1)"> </text><text xml:space="preserve" font-family="ProximaNova-Regular,Proxima Nova" font-size="28.0" fill="#3D3E38" transform="matrix(1.00, 0.00, -0.00, -1.00, 102.4, 223.1)">&amp;</text><text xml:space="preserve" font-family="ProximaNova-Regular,Proxima Nova" font-size="28.0" fill="#3D3E38" transform="matrix(1.00, 0.00, -0.00, -1.00, 120.3, 223.1)"> </text><text xml:space="preserve" font-family="ProximaNova-Regular,Proxima Nova" font-size="28.0" fill="#3D3E38" transform="matrix(1.00, 0.00, -0.00, -1.00, 127.6, 223.1)">o</text><text xml:space="preserve" font-family="ProximaNova-Regular,Proxima Nova" font-size="28.0" fill="#3D3E38" transform="matrix(1.00, 0.00, -0.00, -1.00, 143.6, 223.1)">p</text><text xml:space="preserve" font-family="ProximaNova-Regular,Proxima Nova" font-size="28.0" fill="#3D3E38" transform="matrix(1.00, 0.00, -0.00, -1.00, 159.6, 223.1)">t</text><text xml:space="preserve" font-family="ProximaNova-Regular,Proxima Nova" font-size="28.0" fill="#3D3E38" transform="matrix(1.00, 0.00, -0.00, -1.00, 167.8, 223.1)">i</text><text xml:space="preserve" font-family="ProximaNova-Regular,Proxima Nova" font-size="28.0" fill="#3D3E38" transform="matrix(1.00, 0.00, -0.00, -1.00, 174.1, 223.1)">o</text><text xml:space="preserve" font-family="ProximaNova-Regular,Proxima Nova" font-size="28.0" fill="#3D3E38" transform="matrix(1.00, 0.00, -0.00, -1.00, 190.2, 223.1)">n</text><text xml:space="preserve" font-family="ProximaNova-Regular,Proxima Nova" font-size="28.0" fill="#3D3E38" transform="matrix(1.00, 0.00, -0.00, -1.00, 205.6, 223.1)">s</text></g></g><g><clipPath id="clip0x6000008ab100"><path d="M 348.0 23.7 L 801.2 23.7 L 801.2 440.7 L 348.0 440.7 Z M 348.0 23.7 "></path></clipPath><g clip-path="url(#clip0x6000008ab100)"><image xlink:href="FB6B8731FF10630D8EFBBA4DC3508BDC.png" width="726.00" height="668.00" transform="matrix(0.62, 0.00, -0.00, -0.62, 348.0, 440.7)"></image></g></g></g></svg>