<?xml version="1.0" encoding="UTF-8" standalone="no"?><svg xmlns="http://www.w3.org/2000/svg" xmlns:xlink="http://www.w3.org/1999/xlink" clip-rule="evenodd" stroke-miterlimit="10" viewBox="0 0 1024 768"><desc>SVG generated by Keynote</desc><defs></defs><g transform="matrix(1.00, 0.00, -0.00, -1.00, 0.0, 768.0)"><path d="M 0.0 768.0 L 1024.0 768.0 L 1024.0 0.0 L 0.0 0.0 Z M 0.0 768.0 " fill="#F6F5E8"></path><path d="M -4.0 776.0 L 1028.0 776.0 L 1028.0 -8.0 L -4.0 -8.0 Z M -4.0 776.0 " fill="#60B980"></path><text xml:space="preserve" font-family="ProximaNova-Regular,Proxima Nova" font-size="50.0" fill="#FEFFFE" transform="matrix(1.00, 0.00, -0.00, -1.00, 227.1, 256.0)">A</text><text xml:space="preserve" font-family="ProximaNova-Regular,Proxima Nova" font-size="50.0" fill="#FEFFFE" transform="matrix(1.00, 0.00, -0.00, -1.00, 259.0, 256.0)">v</text><text xml:space="preserve" font-family="ProximaNova-Regular,Proxima Nova" font-size="50.0" fill="#FEFFFE" transform="matrix(1.00, 0.00, -0.00, -1.00, 283.5, 256.0)">a</text><text xml:space="preserve" font-family="ProximaNova-Regular,Proxima Nova" font-size="50.0" fill="#FEFFFE" transform="matrix(1.00, 0.00, -0.00, -1.00, 309.9, 256.0)">i</text><text xml:space="preserve" font-family="ProximaNova-Regular,Proxima Nova" font-size="50.0" fill="#FEFFFE" transform="matrix(1.00, 0.00, -0.00, -1.00, 321.1, 256.0)">l</text><text xml:space="preserve" font-family="ProximaNova-Regular,Proxima Nova" font-size="50.0" fill="#FEFFFE" transform="matrix(1.00, 0.00, -0.00, -1.00, 332.4, 256.0)">a</text><text xml:space="preserve" font-family="ProximaNova-Regular,Proxima Nova" font-size="50.0" fill="#FEFFFE" transform="matrix(1.00, 0.00, -0.00, -1.00, 358.8, 256.0)">b</text><text xml:space="preserve" font-family="ProximaNova-Regular,Proxima Nova" font-size="50.0" fill="#FEFFFE" transform="matrix(1.00, 0.00, -0.00, -1.00, 387.5, 256.0)">l</text><text xml:space="preserve" font-family="ProximaNova-Regular,Proxima Nova" font-size="50.0" fill="#FEFFFE" transform="matrix(1.00, 0.00, -0.00, -1.00, 398.8, 256.0)">e</text><text xml:space="preserve" font-family="ProximaNova-Regular,Proxima Nova" font-size="50.0" fill="#FEFFFE" transform="matrix(1.00, 0.00, -0.00, -1.00, 426.9, 256.0)"> </text><text xml:space="preserve" font-family="ProximaNova-Regular,Proxima Nova" font-size="50.0" fill="#FEFFFE" transform="matrix(1.00, 0.00, -0.00, -1.00, 439.9, 256.0)">v</text><text xml:space="preserve" font-family="ProximaNova-Regular,Proxima Nova" font-size="50.0" fill="#FEFFFE" transform="matrix(1.00, 0.00, -0.00, -1.00, 464.4, 256.0)">i</text><text xml:space="preserve" font-family="ProximaNova-Regular,Proxima Nova" font-size="50.0" fill="#FEFFFE" transform="matrix(1.00, 0.00, -0.00, -1.00, 475.6, 256.0)">a</text><text xml:space="preserve" font-family="ProximaNova-Regular,Proxima Nova" font-size="50.0" fill="#FEFFFE" transform="matrix(1.00, 0.00, -0.00, -1.00, 502.0, 256.0)"> </text><text xml:space="preserve" font-family="ProximaNova-Regular,Proxima Nova" font-size="50.0" fill="#FEFFFE" transform="matrix(1.00, 0.00, -0.00, -1.00, 515.0, 256.0)">C</text><text xml:space="preserve" font-family="ProximaNova-Regular,Proxima Nova" font-size="50.0" fill="#FEFFFE" transform="matrix(1.00, 0.00, -0.00, -1.00, 548.8, 256.0)">o</text><text xml:space="preserve" font-family="ProximaNova-Regular,Proxima Nova" font-size="50.0" fill="#FEFFFE" transform="matrix(1.00, 0.00, -0.00, -1.00, 577.4, 256.0)">m</text><text xml:space="preserve" font-family="ProximaNova-Regular,Proxima Nova" font-size="50.0" fill="#FEFFFE" transform="matrix(1.00, 0.00, -0.00, -1.00, 617.8, 256.0)">p</text><text xml:space="preserve" font-family="ProximaNova-Regular,Proxima Nova" font-size="50.0" fill="#FEFFFE" transform="matrix(1.00, 0.00, -0.00, -1.00, 646.4, 256.0)">o</text><text xml:space="preserve" font-family="ProximaNova-Regular,Proxima Nova" font-size="50.0" fill="#FEFFFE" transform="matrix(1.00, 0.00, -0.00, -1.00, 675.0, 256.0)">s</text><text xml:space="preserve" font-family="ProximaNova-Regular,Proxima Nova" font-size="50.0" fill="#FEFFFE" transform="matrix(1.00, 0.00, -0.00, -1.00, 698.2, 256.0)">e</text><text xml:space="preserve" font-family="ProximaNova-Regular,Proxima Nova" font-size="50.0" fill="#FEFFFE" transform="matrix(1.00, 0.00, -0.00, -1.00, 726.4, 256.0)">r</text><text xml:space="preserve" font-family="ProximaNova-Regular,Proxima Nova" font-size="50.0" fill="#FEFFFE" transform="matrix(1.00, 0.00, -0.00, -1.00, 742.9, 256.0)"> </text><text xml:space="preserve" font-family="ProximaNova-Regular,Proxima Nova" font-size="50.0" fill="#FEFFFE" transform="matrix(1.00, 0.00, -0.00, -1.00, 755.8, 256.0)">a</text><text xml:space="preserve" font-family="ProximaNova-Regular,Proxima Nova" font-size="50.0" fill="#FEFFFE" transform="matrix(1.00, 0.00, -0.00, -1.00, 782.2, 256.0)">t</text><text xml:space="preserve" font-family="ProximaNova-Regular,Proxima Nova" font-size="28.0" fill="#FEFFFE" transform="matrix(1.00, 0.00, -0.00, -1.00, 374.6, 120.9)">P</text><text xml:space="preserve" font-family="ProximaNova-Regular,Proxima Nova" font-size="28.0" fill="#FEFFFE" transform="matrix(1.00, 0.00, -0.00, -1.00, 391.1, 120.9)">H</text><text xml:space="preserve" font-family="ProximaNova-Regular,Proxima Nova" font-size="28.0" fill="#FEFFFE" transform="matrix(1.00, 0.00, -0.00, -1.00, 411.0, 120.9)">P</text><text xml:space="preserve" font-family="ProximaNova-Regular,Proxima Nova" font-size="28.0" fill="#FEFFFE" transform="matrix(1.00, 0.00, -0.00, -1.00, 427.5, 120.9)"> </text><text xml:space="preserve" font-family="ProximaNova-Regular,Proxima Nova" font-size="28.0" fill="#FEFFFE" transform="matrix(1.00, 0.00, -0.00, -1.00, 434.7, 120.9)">5</text><text xml:space="preserve" font-family="ProximaNova-Regular,Proxima Nova" font-size="28.0" fill="#FEFFFE" transform="matrix(1.00, 0.00, -0.00, -1.00, 451.2, 120.9)">.</text><text xml:space="preserve" font-family="ProximaNova-Regular,Proxima Nova" font-size="28.0" fill="#FEFFFE" transform="matrix(1.00, 0.00, -0.00, -1.00, 457.7, 120.9)">3</text><text xml:space="preserve" font-family="ProximaNova-Regular,Proxima Nova" font-size="28.0" fill="#FEFFFE" transform="matrix(1.00, 0.00, -0.00, -1.00, 473.3, 120.9)">+</text><text xml:space="preserve" font-family="ProximaNova-Regular,Proxima Nova" font-size="28.0" fill="#FEFFFE" transform="matrix(1.00, 0.00, -0.00, -1.00, 487.3, 120.9)"> </text><text xml:space="preserve" font-family="ProximaNova-Regular,Proxima Nova" font-size="28.0" fill="#FEFFFE" transform="matrix(1.00, 0.00, -0.00, -1.00, 494.5, 120.9)"> </text><text xml:space="preserve" font-family="ProximaNova-Regular,Proxima Nova" font-size="28.0" fill="#FEFFFE" transform="matrix(1.00, 0.00, -0.00, -1.00, 501.8, 120.9)">L</text><text xml:space="preserve" font-family="ProximaNova-Regular,Proxima Nova" font-size="28.0" fill="#FEFFFE" transform="matrix(1.00, 0.00, -0.00, -1.00, 515.2, 120.9)">a</text><text xml:space="preserve" font-family="ProximaNova-Regular,Proxima Nova" font-size="28.0" fill="#FEFFFE" transform="matrix(1.00, 0.00, -0.00, -1.00, 530.0, 120.9)">r</text><text xml:space="preserve" font-family="ProximaNova-Regular,Proxima Nova" font-size="28.0" fill="#FEFFFE" transform="matrix(1.00, 0.00, -0.00, -1.00, 539.2, 120.9)">a</text><text xml:space="preserve" font-family="ProximaNova-Regular,Proxima Nova" font-size="28.0" fill="#FEFFFE" transform="matrix(1.00, 0.00, -0.00, -1.00, 554.0, 120.9)">v</text><text xml:space="preserve" font-family="ProximaNova-Regular,Proxima Nova" font-size="28.0" fill="#FEFFFE" transform="matrix(1.00, 0.00, -0.00, -1.00, 567.7, 120.9)">e</text><text xml:space="preserve" font-family="ProximaNova-Regular,Proxima Nova" font-size="28.0" fill="#FEFFFE" transform="matrix(1.00, 0.00, -0.00, -1.00, 583.5, 120.9)">l</text><text xml:space="preserve" font-family="ProximaNova-Regular,Proxima Nova" font-size="28.0" fill="#FEFFFE" transform="matrix(1.00, 0.00, -0.00, -1.00, 589.8, 120.9)"> </text><text xml:space="preserve" font-family="ProximaNova-Regular,Proxima Nova" font-size="28.0" fill="#FEFFFE" transform="matrix(1.00, 0.00, -0.00, -1.00, 597.0, 120.9)">4</text><text xml:space="preserve" font-family="ProximaNova-Regular,Proxima Nova" font-size="28.0" fill="#FEFFFE" transform="matrix(1.00, 0.00, -0.00, -1.00, 612.6, 120.9)">.</text><text xml:space="preserve" font-family="ProximaNova-Regular,Proxima Nova" font-size="28.0" fill="#FEFFFE" transform="matrix(1.00, 0.00, -0.00, -1.00, 618.2, 120.9)">0</text><text xml:space="preserve" font-family="ProximaNova-Regular,Proxima Nova" font-size="28.0" fill="#FEFFFE" transform="matrix(1.00, 0.00, -0.00, -1.00, 635.4, 120.9)">+</text><text xml:space="preserve" font-family="ProximaNova-Semibold,Proxima Nova" font-weight="bold" font-size="50.0" fill="#FEFFFE" transform="matrix(1.00, 0.00, -0.00, -1.00, 168.0, 186.0)">g</text><text xml:space="preserve" font-family="ProximaNova-Semibold,Proxima Nova" font-weight="bold" font-size="50.0" fill="#FEFFFE" transform="matrix(1.00, 0.00, -0.00, -1.00, 197.1, 186.0)">i</text><text xml:space="preserve" font-family="ProximaNova-Semibold,Proxima Nova" font-weight="bold" font-size="50.0" fill="#FEFFFE" transform="matrix(1.00, 0.00, -0.00, -1.00, 209.1, 186.0)">t</text><text xml:space="preserve" font-family="ProximaNova-Semibold,Proxima Nova" font-weight="bold" font-size="50.0" fill="#FEFFFE" transform="matrix(1.00, 0.00, -0.00, -1.00, 225.1, 186.0)">h</text><text xml:space="preserve" font-family="ProximaNova-Semibold,Proxima Nova" font-weight="bold" font-size="50.0" fill="#FEFFFE" transform="matrix(1.00, 0.00, -0.00, -1.00, 253.4, 186.0)">u</text><text xml:space="preserve" font-family="ProximaNova-Semibold,Proxima Nova" font-weight="bold" font-size="50.0" fill="#FEFFFE" transform="matrix(1.00, 0.00, -0.00, -1.00, 281.8, 186.0)">b</text><text xml:space="preserve" font-family="ProximaNova-Semibold,Proxima Nova" font-weight="bold" font-size="50.0" fill="#FEFFFE" transform="matrix(1.00, 0.00, -0.00, -1.00, 310.6, 186.0)">.</text><text xml:space="preserve" font-family="ProximaNova-Semibold,Proxima Nova" font-weight="bold" font-size="50.0" fill="#FEFFFE" transform="matrix(1.00, 0.00, -0.00, -1.00, 322.6, 186.0)">c</text><text xml:space="preserve" font-family="ProximaNova-Semibold,Proxima Nova" font-weight="bold" font-size="50.0" fill="#FEFFFE" transform="matrix(1.00, 0.00, -0.00, -1.00, 347.5, 186.0)">o</text><text xml:space="preserve" font-family="ProximaNova-Semibold,Proxima Nova" font-weight="bold" font-size="50.0" fill="#FEFFFE" transform="matrix(1.00, 0.00, -0.00, -1.00, 376.2, 186.0)">m</text><text xml:space="preserve" font-family="ProximaNova-Semibold,Proxima Nova" font-weight="bold" font-size="50.0" fill="#FEFFFE" transform="matrix(1.00, 0.00, -0.00, -1.00, 417.9, 186.0)">/</text><text xml:space="preserve" font-family="ProximaNova-Semibold,Proxima Nova" font-weight="bold" font-size="50.0" fill="#FEFFFE" transform="matrix(1.00, 0.00, -0.00, -1.00, 433.7, 186.0)">I</text><text xml:space="preserve" font-family="ProximaNova-Semibold,Proxima Nova" font-weight="bold" font-size="50.0" fill="#FEFFFE" transform="matrix(1.00, 0.00, -0.00, -1.00, 446.6, 186.0)">n</text><text xml:space="preserve" font-family="ProximaNova-Semibold,Proxima Nova" font-weight="bold" font-size="50.0" fill="#FEFFFE" transform="matrix(1.00, 0.00, -0.00, -1.00, 475.0, 186.0)">d</text><text xml:space="preserve" font-family="ProximaNova-Semibold,Proxima Nova" font-weight="bold" font-size="50.0" fill="#FEFFFE" transform="matrix(1.00, 0.00, -0.00, -1.00, 504.1, 186.0)">a</text><text xml:space="preserve" font-family="ProximaNova-Semibold,Proxima Nova" font-weight="bold" font-size="50.0" fill="#FEFFFE" transform="matrix(1.00, 0.00, -0.00, -1.00, 530.9, 186.0)">t</text><text xml:space="preserve" font-family="ProximaNova-Semibold,Proxima Nova" font-weight="bold" font-size="50.0" fill="#FEFFFE" transform="matrix(1.00, 0.00, -0.00, -1.00, 546.9, 186.0)">u</text><text xml:space="preserve" font-family="ProximaNova-Semibold,Proxima Nova" font-weight="bold" font-size="50.0" fill="#FEFFFE" transform="matrix(1.00, 0.00, -0.00, -1.00, 575.2, 186.0)">s</text><text xml:space="preserve" font-family="ProximaNova-Semibold,Proxima Nova" font-weight="bold" font-size="50.0" fill="#FEFFFE" transform="matrix(1.00, 0.00, -0.00, -1.00, 598.8, 186.0)">/</text><text xml:space="preserve" font-family="ProximaNova-Semibold,Proxima Nova" font-weight="bold" font-size="50.0" fill="#FEFFFE" transform="matrix(1.00, 0.00, -0.00, -1.00, 614.6, 186.0)">D</text><text xml:space="preserve" font-family="ProximaNova-Semibold,Proxima Nova" font-weight="bold" font-size="50.0" fill="#FEFFFE" transform="matrix(1.00, 0.00, -0.00, -1.00, 650.1, 186.0)">i</text><text xml:space="preserve" font-family="ProximaNova-Semibold,Proxima Nova" font-weight="bold" font-size="50.0" fill="#FEFFFE" transform="matrix(1.00, 0.00, -0.00, -1.00, 662.1, 186.0)">s</text><text xml:space="preserve" font-family="ProximaNova-Semibold,Proxima Nova" font-weight="bold" font-size="50.0" fill="#FEFFFE" transform="matrix(1.00, 0.00, -0.00, -1.00, 685.8, 186.0)">p</text><text xml:space="preserve" font-family="ProximaNova-Semibold,Proxima Nova" font-weight="bold" font-size="50.0" fill="#FEFFFE" transform="matrix(1.00, 0.00, -0.00, -1.00, 714.7, 186.0)">a</text><text xml:space="preserve" font-family="ProximaNova-Semibold,Proxima Nova" font-weight="bold" font-size="50.0" fill="#FEFFFE" transform="matrix(1.00, 0.00, -0.00, -1.00, 741.6, 186.0)">t</text><text xml:space="preserve" font-family="ProximaNova-Semibold,Proxima Nova" font-weight="bold" font-size="50.0" fill="#FEFFFE" transform="matrix(1.00, 0.00, -0.00, -1.00, 757.5, 186.0)">c</text><text xml:space="preserve" font-family="ProximaNova-Semibold,Proxima Nova" font-weight="bold" font-size="50.0" fill="#FEFFFE" transform="matrix(1.00, 0.00, -0.00, -1.00, 782.4, 186.0)">h</text><text xml:space="preserve" font-family="ProximaNova-Semibold,Proxima Nova" font-weight="bold" font-size="50.0" fill="#FEFFFE" transform="matrix(1.00, 0.00, -0.00, -1.00, 810.8, 186.0)">e</text><text xml:space="preserve" font-family="ProximaNova-Semibold,Proxima Nova" font-weight="bold" font-size="50.0" fill="#FEFFFE" transform="matrix(1.00, 0.00, -0.00, -1.00, 838.7, 186.0)">r</text><text xml:space="preserve" font-family="ProximaNova-LightIt,Proxima Nova" font-style="italic" font-size="28.0" fill="#44443D" transform="matrix(1.00, 0.00, -0.00, -1.00, 220.0, 60.4)">B</text><text xml:space="preserve" font-family="ProximaNova-LightIt,Proxima Nova" font-style="italic" font-size="28.0" fill="#44443D" transform="matrix(1.00, 0.00, -0.00, -1.00, 237.2, 60.4)">e</text><text xml:space="preserve" font-family="ProximaNova-LightIt,Proxima Nova" font-style="italic" font-size="28.0" fill="#44443D" transform="matrix(1.00, 0.00, -0.00, -1.00, 253.1, 60.4)">n</text><text xml:space="preserve" font-family="ProximaNova-LightIt,Proxima Nova" font-style="italic" font-size="28.0" fill="#44443D" transform="matrix(1.00, 0.00, -0.00, -1.00, 268.2, 60.4)"> </text><text xml:space="preserve" font-family="ProximaNova-LightIt,Proxima Nova" font-style="italic" font-size="28.0" fill="#44443D" transform="matrix(1.00, 0.00, -0.00, -1.00, 275.4, 60.4)">K</text><text xml:space="preserve" font-family="ProximaNova-LightIt,Proxima Nova" font-style="italic" font-size="28.0" fill="#44443D" transform="matrix(1.00, 0.00, -0.00, -1.00, 291.3, 60.4)">u</text><text xml:space="preserve" font-family="ProximaNova-LightIt,Proxima Nova" font-style="italic" font-size="28.0" fill="#44443D" transform="matrix(1.00, 0.00, -0.00, -1.00, 306.4, 60.4)">h</text><text xml:space="preserve" font-family="ProximaNova-LightIt,Proxima Nova" font-style="italic" font-size="28.0" fill="#44443D" transform="matrix(1.00, 0.00, -0.00, -1.00, 321.5, 60.4)">l</text><text xml:space="preserve" font-family="ProximaNova-LightIt,Proxima Nova" font-style="italic" font-size="28.0" fill="#44443D" transform="matrix(1.00, 0.00, -0.00, -1.00, 327.5, 60.4)"> </text><text xml:space="preserve" font-family="ProximaNova-LightIt,Proxima Nova" font-style="italic" font-size="28.0" fill="#44443D" transform="matrix(1.00, 0.00, -0.00, -1.00, 334.8, 60.4)"> </text><text xml:space="preserve" font-family="ProximaNova-LightIt,Proxima Nova" font-style="italic" font-size="28.0" fill="#44443D" transform="matrix(1.00, 0.00, -0.00, -1.00, 342.0, 60.4)">|</text><text xml:space="preserve" font-family="ProximaNova-LightIt,Proxima Nova" font-style="italic" font-size="28.0" fill="#44443D" transform="matrix(1.00, 0.00, -0.00, -1.00, 347.9, 60.4)"> </text><text xml:space="preserve" font-family="ProximaNova-LightIt,Proxima Nova" font-style="italic" font-size="28.0" fill="#44443D" transform="matrix(1.00, 0.00, -0.00, -1.00, 355.1, 60.4)"> </text><text xml:space="preserve" font-family="ProximaNova-LightIt,Proxima Nova" font-style="italic" font-size="28.0" fill="#44443D" transform="matrix(1.00, 0.00, -0.00, -1.00, 362.4, 60.4)">@</text><text xml:space="preserve" font-family="ProximaNova-LightIt,Proxima Nova" font-style="italic" font-size="28.0" fill="#44443D" transform="matrix(1.00, 0.00, -0.00, -1.00, 384.3, 60.4)">B</text><text xml:space="preserve" font-family="ProximaNova-LightIt,Proxima Nova" font-style="italic" font-size="28.0" fill="#44443D" transform="matrix(1.00, 0.00, -0.00, -1.00, 401.5, 60.4)">K</text><text xml:space="preserve" font-family="ProximaNova-LightIt,Proxima Nova" font-style="italic" font-size="28.0" fill="#44443D" transform="matrix(1.00, 0.00, -0.00, -1.00, 417.3, 60.4)">u</text><text xml:space="preserve" font-family="ProximaNova-LightIt,Proxima Nova" font-style="italic" font-size="28.0" fill="#44443D" transform="matrix(1.00, 0.00, -0.00, -1.00, 432.5, 60.4)">h</text><text xml:space="preserve" font-family="ProximaNova-LightIt,Proxima Nova" font-style="italic" font-size="28.0" fill="#44443D" transform="matrix(1.00, 0.00, -0.00, -1.00, 447.6, 60.4)">l</text><text xml:space="preserve" font-family="ProximaNova-LightIt,Proxima Nova" font-style="italic" font-size="28.0" fill="#44443D" transform="matrix(1.00, 0.00, -0.00, -1.00, 453.6, 60.4)">O</text><text xml:space="preserve" font-family="ProximaNova-LightIt,Proxima Nova" font-style="italic" font-size="28.0" fill="#44443D" transform="matrix(1.00, 0.00, -0.00, -1.00, 475.0, 60.4)">r</text><text xml:space="preserve" font-family="ProximaNova-LightIt,Proxima Nova" font-style="italic" font-size="28.0" fill="#44443D" transform="matrix(1.00, 0.00, -0.00, -1.00, 483.8, 60.4)">E</text><text xml:space="preserve" font-family="ProximaNova-LightIt,Proxima Nova" font-style="italic" font-size="28.0" fill="#44443D" transform="matrix(1.00, 0.00, -0.00, -1.00, 499.6, 60.4)">l</text><text xml:space="preserve" font-family="ProximaNova-LightIt,Proxima Nova" font-style="italic" font-size="28.0" fill="#44443D" transform="matrix(1.00, 0.00, -0.00, -1.00, 505.6, 60.4)">s</text><text xml:space="preserve" font-family="ProximaNova-LightIt,Proxima Nova" font-style="italic" font-size="28.0" fill="#44443D" transform="matrix(1.00, 0.00, -0.00, -1.00, 518.5, 60.4)">e</text><text xml:space="preserve" font-family="ProximaNova-LightIt,Proxima Nova" font-style="italic" font-size="28.0" fill="#44443D" transform="matrix(1.00, 0.00, -0.00, -1.00, 534.4, 60.4)"> </text><text xml:space="preserve" font-family="ProximaNova-LightIt,Proxima Nova" font-style="italic" font-size="28.0" fill="#44443D" transform="matrix(1.00, 0.00, -0.00, -1.00, 541.6, 60.4)"> </text><text xml:space="preserve" font-family="ProximaNova-LightIt,Proxima Nova" font-style="italic" font-size="28.0" fill="#44443D" transform="matrix(1.00, 0.00, -0.00, -1.00, 548.9, 60.4)">|</text><text xml:space="preserve" font-family="ProximaNova-LightIt,Proxima Nova" font-style="italic" font-size="28.0" fill="#44443D" transform="matrix(1.00, 0.00, -0.00, -1.00, 554.7, 60.4)"> </text><text xml:space="preserve" font-family="ProximaNova-LightIt,Proxima Nova" font-style="italic" font-size="28.0" fill="#44443D" transform="matrix(1.00, 0.00, -0.00, -1.00, 561.9, 60.4)"> </text><text xml:space="preserve" font-family="ProximaNova-LightIt,Proxima Nova" font-style="italic" font-size="28.0" fill="#44443D" transform="matrix(1.00, 0.00, -0.00, -1.00, 569.2, 60.4)">b</text><text xml:space="preserve" font-family="ProximaNova-LightIt,Proxima Nova" font-style="italic" font-size="28.0" fill="#44443D" transform="matrix(1.00, 0.00, -0.00, -1.00, 585.2, 60.4)">k</text><text xml:space="preserve" font-family="ProximaNova-LightIt,Proxima Nova" font-style="italic" font-size="28.0" fill="#44443D" transform="matrix(1.00, 0.00, -0.00, -1.00, 599.3, 60.4)">u</text><text xml:space="preserve" font-family="ProximaNova-LightIt,Proxima Nova" font-style="italic" font-size="28.0" fill="#44443D" transform="matrix(1.00, 0.00, -0.00, -1.00, 614.4, 60.4)">h</text><text xml:space="preserve" font-family="ProximaNova-LightIt,Proxima Nova" font-style="italic" font-size="28.0" fill="#44443D" transform="matrix(1.00, 0.00, -0.00, -1.00, 629.6, 60.4)">l</text><text xml:space="preserve" font-family="ProximaNova-LightIt,Proxima Nova" font-style="italic" font-size="28.0" fill="#44443D" transform="matrix(1.00, 0.00, -0.00, -1.00, 635.6, 60.4)">@</text><text xml:space="preserve" font-family="ProximaNova-LightIt,Proxima Nova" font-style="italic" font-size="28.0" fill="#44443D" transform="matrix(1.00, 0.00, -0.00, -1.00, 657.5, 60.4)">i</text><text xml:space="preserve" font-family="ProximaNova-LightIt,Proxima Nova" font-style="italic" font-size="28.0" fill="#44443D" transform="matrix(1.00, 0.00, -0.00, -1.00, 663.5, 60.4)">n</text><text xml:space="preserve" font-family="ProximaNova-LightIt,Proxima Nova" font-style="italic" font-size="28.0" fill="#44443D" transform="matrix(1.00, 0.00, -0.00, -1.00, 678.6, 60.4)">d</text><text xml:space="preserve" font-family="ProximaNova-LightIt,Proxima Nova" font-style="italic" font-size="28.0" fill="#44443D" transform="matrix(1.00, 0.00, -0.00, -1.00, 694.6, 60.4)">a</text><text xml:space="preserve" font-family="ProximaNova-LightIt,Proxima Nova" font-style="italic" font-size="28.0" fill="#44443D" transform="matrix(1.00, 0.00, -0.00, -1.00, 710.6, 60.4)">t</text><text xml:space="preserve" font-family="ProximaNova-LightIt,Proxima Nova" font-style="italic" font-size="28.0" fill="#44443D" transform="matrix(1.00, 0.00, -0.00, -1.00, 718.3, 60.4)">u</text><text xml:space="preserve" font-family="ProximaNova-LightIt,Proxima Nova" font-style="italic" font-size="28.0" fill="#44443D" transform="matrix(1.00, 0.00, -0.00, -1.00, 733.4, 60.4)">s</text><text xml:space="preserve" font-family="ProximaNova-LightIt,Proxima Nova" font-style="italic" font-size="28.0" fill="#44443D" transform="matrix(1.00, 0.00, -0.00, -1.00, 746.2, 60.4)">.</text><text xml:space="preserve" font-family="ProximaNova-LightIt,Proxima Nova" font-style="italic" font-size="28.0" fill="#44443D" transform="matrix(1.00, 0.00, -0.00, -1.00, 752.1, 60.4)">c</text><text xml:space="preserve" font-family="ProximaNova-LightIt,Proxima Nova" font-style="italic" font-size="28.0" fill="#44443D" transform="matrix(1.00, 0.00, -0.00, -1.00, 765.9, 60.4)">o</text><text xml:space="preserve" font-family="ProximaNova-LightIt,Proxima Nova" font-style="italic" font-size="28.0" fill="#44443D" transform="matrix(1.00, 0.00, -0.00, -1.00, 781.9, 60.4)">m</text><g><clipPath id="clip0x6080008acea0"><path d="M 568.2 56.1 L 804.0 56.1 L 804.0 58.7 L 568.2 58.7 Z M 568.2 56.1 "></path></clipPath><g clip-path="url(#clip0x6080008acea0)"><path d="M 469.2 35.1 L 704.0 35.1 " fill="none" stroke="#44443D" stroke-width="0.59" transform="matrix(1.00, 0.00, 0.00, -1.00, 100.0, 92.5)"></path></g></g><g><clipPath id="clip0x6080008ad0e0"><path d="M 286.0 751.0 L 738.0 751.0 L 738.0 299.0 L 286.0 299.0 Z M 286.0 751.4 "></path></clipPath><g clip-path="url(#clip0x6080008ad0e0)"><image xlink:href="../../49E9F3D0-DBFF-49C7-979A-5AD891E340E2/assets/861A3224F86633C0F5557D55279A801C.png" width="800.00" height="600.00" transform="matrix(0.75, 0.00, -0.00, -0.75, 210.7, 751.4)"></image></g></g></g></svg>