<?xml version="1.0" encoding="UTF-8" standalone="no"?><svg xmlns="http://www.w3.org/2000/svg" xmlns:xlink="http://www.w3.org/1999/xlink" clip-rule="evenodd" stroke-miterlimit="10" viewBox="0 0 1024 768"><desc>SVG generated by Keynote</desc><defs></defs><g transform="matrix(1.00, 0.00, -0.00, -1.00, 0.0, 768.0)"><path d="M 0.0 768.0 L 1024.0 768.0 L 1024.0 0.0 L 0.0 0.0 Z M 0.0 768.0 " fill="#1E1E1E"></path><path d="M -2.0 768.0 L 1024.0 768.0 L 1024.0 0.0 L -2.0 0.0 Z M -2.0 768.0 " fill="#F6F5E9"></path><path d="M -2.0 679.0 L 1038.0 679.0 L 1038.0 487.0 L -2.0 487.0 Z M -2.0 679.2 " fill="#272821"></path><path d="M -1.0 767.0 L 1025.0 767.0 L 1025.0 678.0 L -1.0 678.0 Z M -1.0 767.5 " fill="#FEFFFE"></path><image xlink:href="6C8D5684282CC473C3435621575F4272.png" width="1364.00" height="150.00" transform="matrix(0.63, 0.00, -0.00, -0.63, 65.6, 622.8)"></image><text xml:space="preserve" font-family="ProximaNova-Regular,Proxima Nova" font-size="36.0" fill="#DF7E3E" transform="matrix(1.00, 0.00, -0.00, -1.00, 30.0, 708.6)">S</text><text xml:space="preserve" font-family="ProximaNova-Regular,Proxima Nova" font-size="36.0" fill="#DF7E3E" transform="matrix(1.00, 0.00, -0.00, -1.00, 51.1, 708.6)">c</text><text xml:space="preserve" font-family="ProximaNova-Regular,Proxima Nova" font-size="36.0" fill="#DF7E3E" transform="matrix(1.00, 0.00, -0.00, -1.00, 69.0, 708.6)">h</text><text xml:space="preserve" font-family="ProximaNova-Regular,Proxima Nova" font-size="36.0" fill="#DF7E3E" transform="matrix(1.00, 0.00, -0.00, -1.00, 88.8, 708.6)">e</text><text xml:space="preserve" font-family="ProximaNova-Regular,Proxima Nova" font-size="36.0" fill="#DF7E3E" transform="matrix(1.00, 0.00, -0.00, -1.00, 109.1, 708.6)">d</text><text xml:space="preserve" font-family="ProximaNova-Regular,Proxima Nova" font-size="36.0" fill="#DF7E3E" transform="matrix(1.00, 0.00, -0.00, -1.00, 129.8, 708.6)">u</text><text xml:space="preserve" font-family="ProximaNova-Regular,Proxima Nova" font-size="36.0" fill="#DF7E3E" transform="matrix(1.00, 0.00, -0.00, -1.00, 149.6, 708.6)">l</text><text xml:space="preserve" font-family="ProximaNova-Regular,Proxima Nova" font-size="36.0" fill="#DF7E3E" transform="matrix(1.00, 0.00, -0.00, -1.00, 157.7, 708.6)">i</text><text xml:space="preserve" font-family="ProximaNova-Regular,Proxima Nova" font-size="36.0" fill="#DF7E3E" transform="matrix(1.00, 0.00, -0.00, -1.00, 165.8, 708.6)">n</text><text xml:space="preserve" font-family="ProximaNova-Regular,Proxima Nova" font-size="36.0" fill="#DF7E3E" transform="matrix(1.00, 0.00, -0.00, -1.00, 185.7, 708.6)">g</text><text xml:space="preserve" font-family="ProximaNova-Regular,Proxima Nova" font-size="36.0" fill="#DF7E3E" transform="matrix(1.00, 0.00, -0.00, -1.00, 206.4, 708.6)"> </text><text xml:space="preserve" font-family="ProximaNova-Regular,Proxima Nova" font-size="36.0" fill="#DF7E3E" transform="matrix(1.00, 0.00, -0.00, -1.00, 215.7, 708.6)">C</text><text xml:space="preserve" font-family="ProximaNova-Regular,Proxima Nova" font-size="36.0" fill="#DF7E3E" transform="matrix(1.00, 0.00, -0.00, -1.00, 240.1, 708.6)">o</text><text xml:space="preserve" font-family="ProximaNova-Regular,Proxima Nova" font-size="36.0" fill="#DF7E3E" transform="matrix(1.00, 0.00, -0.00, -1.00, 260.7, 708.6)">m</text><text xml:space="preserve" font-family="ProximaNova-Regular,Proxima Nova" font-size="36.0" fill="#DF7E3E" transform="matrix(1.00, 0.00, -0.00, -1.00, 289.7, 708.6)">m</text><text xml:space="preserve" font-family="ProximaNova-Regular,Proxima Nova" font-size="36.0" fill="#DF7E3E" transform="matrix(1.00, 0.00, -0.00, -1.00, 318.8, 708.6)">a</text><text xml:space="preserve" font-family="ProximaNova-Regular,Proxima Nova" font-size="36.0" fill="#DF7E3E" transform="matrix(1.00, 0.00, -0.00, -1.00, 337.8, 708.6)">n</text><text xml:space="preserve" font-family="ProximaNova-Regular,Proxima Nova" font-size="36.0" fill="#DF7E3E" transform="matrix(1.00, 0.00, -0.00, -1.00, 357.7, 708.6)">d</text><text xml:space="preserve" font-family="ProximaNova-Regular,Proxima Nova" font-size="36.0" fill="#DF7E3E" transform="matrix(1.00, 0.00, -0.00, -1.00, 378.4, 708.6)">s</text><path d="M 0.0 0.5 L 1024.0 0.5 " fill="none" stroke="#C6C7BE" stroke-width="1.00" transform="matrix(1.00, 0.00, 0.00, -1.00, -0.0, 679.0)"></path></g></svg>