<?xml version="1.0" encoding="UTF-8" standalone="no"?><svg xmlns="http://www.w3.org/2000/svg" xmlns:xlink="http://www.w3.org/1999/xlink" clip-rule="evenodd" stroke-miterlimit="10" viewBox="0 0 801 200"><desc>SVG generated by Keynote</desc><defs></defs><g transform="matrix(1.00, 0.00, -0.00, -1.00, 0.0, 200.0)"><g><clipPath id="clip0x6000006b5cc0"><path d="M 0.5 20.8 L 800.5 20.8 L 800.5 199.2 L 0.5 199.2 Z M 0.5 20.8 "></path></clipPath><g clip-path="url(#clip0x6000006b5cc0)"><path d="M 2.0 198.0 L 800.0 198.0 L 800.0 22.0 L 2.0 22.0 Z M 1.5 198.2 " fill="#FBC05A" fill-opacity="0.40"></path></g></g><g><clipPath id="clip0x6000006b65c0"><path d="M 1.0 0.3 L 800.0 0.3 L 800.0 142.3 L 1.0 142.3 Z M 1.0 0.3 "></path></clipPath><g clip-path="url(#clip0x6000006b65c0)"><path d="M 2.0 141.0 L 799.0 141.0 L 799.0 1.0 L 2.0 1.0 Z M 2.0 141.3 " fill="#383838"></path></g></g><g><clipPath id="clip0x6000006b6800"><path d="M 20.0 146.3 L 783.8 146.3 L 783.8 194.3 L 20.0 194.3 Z M 20.0 146.3 "></path></clipPath><g clip-path="url(#clip0x6000006b6800)"><text xml:space="preserve" font-family="ProximaNova-Regular,Proxima Nova" font-size="28.0" fill="#3D3E38" transform="matrix(1.00, 0.00, -0.00, -1.00, 27.0, 159.2)">4</text><text xml:space="preserve" font-family="ProximaNova-Regular,Proxima Nova" font-size="28.0" fill="#3D3E38" transform="matrix(1.00, 0.00, -0.00, -1.00, 42.6, 159.2)">.</text><text xml:space="preserve" font-family="ProximaNova-Regular,Proxima Nova" font-size="28.0" fill="#3D3E38" transform="matrix(1.00, 0.00, -0.00, -1.00, 49.1, 159.2)"> </text><text xml:space="preserve" font-family="ProximaNova-Regular,Proxima Nova" font-size="28.0" fill="#3D3E38" transform="matrix(1.00, 0.00, -0.00, -1.00, 73.0, 159.2)">V</text><text xml:space="preserve" font-family="ProximaNova-Regular,Proxima Nova" font-size="28.0" fill="#3D3E38" transform="matrix(1.00, 0.00, -0.00, -1.00, 89.8, 159.2)">e</text><text xml:space="preserve" font-family="ProximaNova-Regular,Proxima Nova" font-size="28.0" fill="#3D3E38" transform="matrix(1.00, 0.00, -0.00, -1.00, 105.5, 159.2)">r</text><text xml:space="preserve" font-family="ProximaNova-Regular,Proxima Nova" font-size="28.0" fill="#3D3E38" transform="matrix(1.00, 0.00, -0.00, -1.00, 114.8, 159.2)">i</text><text xml:space="preserve" font-family="ProximaNova-Regular,Proxima Nova" font-size="28.0" fill="#3D3E38" transform="matrix(1.00, 0.00, -0.00, -1.00, 121.1, 159.2)">f</text><text xml:space="preserve" font-family="ProximaNova-Regular,Proxima Nova" font-size="28.0" fill="#3D3E38" transform="matrix(1.00, 0.00, -0.00, -1.00, 129.0, 159.2)">y</text><text xml:space="preserve" font-family="ProximaNova-Regular,Proxima Nova" font-size="28.0" fill="#3D3E38" transform="matrix(1.00, 0.00, -0.00, -1.00, 142.7, 159.2)"> </text><text xml:space="preserve" font-family="ProximaNova-Regular,Proxima Nova" font-size="28.0" fill="#3D3E38" transform="matrix(1.00, 0.00, -0.00, -1.00, 150.0, 159.2)">a</text><text xml:space="preserve" font-family="ProximaNova-Regular,Proxima Nova" font-size="28.0" fill="#3D3E38" transform="matrix(1.00, 0.00, -0.00, -1.00, 164.8, 159.2)">r</text><text xml:space="preserve" font-family="ProximaNova-Regular,Proxima Nova" font-size="28.0" fill="#3D3E38" transform="matrix(1.00, 0.00, -0.00, -1.00, 174.0, 159.2)">t</text><text xml:space="preserve" font-family="ProximaNova-Regular,Proxima Nova" font-size="28.0" fill="#3D3E38" transform="matrix(1.00, 0.00, -0.00, -1.00, 182.2, 159.2)">i</text><text xml:space="preserve" font-family="ProximaNova-Regular,Proxima Nova" font-size="28.0" fill="#3D3E38" transform="matrix(1.00, 0.00, -0.00, -1.00, 188.5, 159.2)">s</text><text xml:space="preserve" font-family="ProximaNova-Regular,Proxima Nova" font-size="28.0" fill="#3D3E38" transform="matrix(1.00, 0.00, -0.00, -1.00, 201.6, 159.2)">a</text><text xml:space="preserve" font-family="ProximaNova-Regular,Proxima Nova" font-size="28.0" fill="#3D3E38" transform="matrix(1.00, 0.00, -0.00, -1.00, 216.3, 159.2)">n</text><text xml:space="preserve" font-family="ProximaNova-Regular,Proxima Nova" font-size="28.0" fill="#3D3E38" transform="matrix(1.00, 0.00, -0.00, -1.00, 231.8, 159.2)"> </text><text xml:space="preserve" font-family="ProximaNova-Regular,Proxima Nova" font-size="28.0" fill="#3D3E38" transform="matrix(1.00, 0.00, -0.00, -1.00, 239.0, 159.2)">c</text><text xml:space="preserve" font-family="ProximaNova-Regular,Proxima Nova" font-size="28.0" fill="#3D3E38" transform="matrix(1.00, 0.00, -0.00, -1.00, 252.9, 159.2)">o</text><text xml:space="preserve" font-family="ProximaNova-Regular,Proxima Nova" font-size="28.0" fill="#3D3E38" transform="matrix(1.00, 0.00, -0.00, -1.00, 269.0, 159.2)">m</text><text xml:space="preserve" font-family="ProximaNova-Regular,Proxima Nova" font-size="28.0" fill="#3D3E38" transform="matrix(1.00, 0.00, -0.00, -1.00, 291.6, 159.2)">m</text><text xml:space="preserve" font-family="ProximaNova-Regular,Proxima Nova" font-size="28.0" fill="#3D3E38" transform="matrix(1.00, 0.00, -0.00, -1.00, 314.2, 159.2)">a</text><text xml:space="preserve" font-family="ProximaNova-Regular,Proxima Nova" font-size="28.0" fill="#3D3E38" transform="matrix(1.00, 0.00, -0.00, -1.00, 329.0, 159.2)">n</text><text xml:space="preserve" font-family="ProximaNova-Regular,Proxima Nova" font-size="28.0" fill="#3D3E38" transform="matrix(1.00, 0.00, -0.00, -1.00, 344.4, 159.2)">d</text><text xml:space="preserve" font-family="ProximaNova-Regular,Proxima Nova" font-size="28.0" fill="#3D3E38" transform="matrix(1.00, 0.00, -0.00, -1.00, 360.5, 159.2)">s</text></g></g><g><clipPath id="clip0x6000006b73a0"><path d="M 15.5 21.3 L 785.5 21.3 L 785.5 121.4 L 15.5 121.4 Z M 15.5 21.3 "></path></clipPath><g clip-path="url(#clip0x6000006b73a0)"><image xlink:href="85088448326EAC925A51759375A09E5C.png" width="1108.00" height="144.00" transform="matrix(0.69, 0.00, -0.00, -0.69, 15.5, 121.4)"></image></g></g><g><clipPath id="clip0x6180006a26a0"><path d="M 1.0 115.2 L 800.0 115.2 L 800.0 133.3 L 1.0 133.3 Z M 1.0 115.2 "></path></clipPath><g clip-path="url(#clip0x6180006a26a0)"><path d="M 2.0 132.0 L 799.0 132.0 L 799.0 116.0 L 2.0 116.0 Z M 2.0 132.3 " fill="#383838"></path></g></g></g></svg>