<?xml version="1.0" encoding="UTF-8" standalone="no"?><svg xmlns="http://www.w3.org/2000/svg" xmlns:xlink="http://www.w3.org/1999/xlink" clip-rule="evenodd" stroke-miterlimit="10" viewBox="0 0 392 35"><desc>SVG generated by Keynote</desc><defs></defs><g transform="matrix(1.00, 0.00, -0.00, -1.00, 0.0, 35.0)"><text xml:space="preserve" font-family="ProximaNova-Regular,Proxima Nova" font-size="36.0" fill="#DF7E3E" transform="matrix(1.00, 0.00, -0.00, -1.00, -1.0, 8.6)">H</text><text xml:space="preserve" font-family="ProximaNova-Regular,Proxima Nova" font-size="36.0" fill="#DF7E3E" transform="matrix(1.00, 0.00, -0.00, -1.00, 24.6, 8.6)">o</text><text xml:space="preserve" font-family="ProximaNova-Regular,Proxima Nova" font-size="36.0" fill="#DF7E3E" transform="matrix(1.00, 0.00, -0.00, -1.00, 45.2, 8.6)">w</text><text xml:space="preserve" font-family="ProximaNova-Regular,Proxima Nova" font-size="36.0" fill="#DF7E3E" transform="matrix(1.00, 0.00, -0.00, -1.00, 71.6, 8.6)"> </text><text xml:space="preserve" font-family="ProximaNova-Regular,Proxima Nova" font-size="36.0" fill="#DF7E3E" transform="matrix(1.00, 0.00, -0.00, -1.00, 81.0, 8.6)">t</text><text xml:space="preserve" font-family="ProximaNova-Regular,Proxima Nova" font-size="36.0" fill="#DF7E3E" transform="matrix(1.00, 0.00, -0.00, -1.00, 91.6, 8.6)">o</text><text xml:space="preserve" font-family="ProximaNova-Regular,Proxima Nova" font-size="36.0" fill="#DF7E3E" transform="matrix(1.00, 0.00, -0.00, -1.00, 112.1, 8.6)"> </text><text xml:space="preserve" font-family="ProximaNova-Regular,Proxima Nova" font-size="36.0" fill="#DF7E3E" transform="matrix(1.00, 0.00, -0.00, -1.00, 121.5, 8.6)">i</text><text xml:space="preserve" font-family="ProximaNova-Regular,Proxima Nova" font-size="36.0" fill="#DF7E3E" transform="matrix(1.00, 0.00, -0.00, -1.00, 129.6, 8.6)">n</text><text xml:space="preserve" font-family="ProximaNova-Regular,Proxima Nova" font-size="36.0" fill="#DF7E3E" transform="matrix(1.00, 0.00, -0.00, -1.00, 149.4, 8.6)">s</text><text xml:space="preserve" font-family="ProximaNova-Regular,Proxima Nova" font-size="36.0" fill="#DF7E3E" transform="matrix(1.00, 0.00, -0.00, -1.00, 166.2, 8.6)">t</text><text xml:space="preserve" font-family="ProximaNova-Regular,Proxima Nova" font-size="36.0" fill="#DF7E3E" transform="matrix(1.00, 0.00, -0.00, -1.00, 176.8, 8.6)">a</text><text xml:space="preserve" font-family="ProximaNova-Regular,Proxima Nova" font-size="36.0" fill="#DF7E3E" transform="matrix(1.00, 0.00, -0.00, -1.00, 195.8, 8.6)">l</text><text xml:space="preserve" font-family="ProximaNova-Regular,Proxima Nova" font-size="36.0" fill="#DF7E3E" transform="matrix(1.00, 0.00, -0.00, -1.00, 203.9, 8.6)">l</text><text xml:space="preserve" font-family="ProximaNova-Regular,Proxima Nova" font-size="36.0" fill="#DF7E3E" transform="matrix(1.00, 0.00, -0.00, -1.00, 212.0, 8.6)"> </text><text xml:space="preserve" font-family="ProximaNova-Regular,Proxima Nova" font-size="36.0" fill="#DF7E3E" transform="matrix(1.00, 0.00, -0.00, -1.00, 221.3, 8.6)">D</text><text xml:space="preserve" font-family="ProximaNova-Regular,Proxima Nova" font-size="36.0" fill="#DF7E3E" transform="matrix(1.00, 0.00, -0.00, -1.00, 246.5, 8.6)">i</text><text xml:space="preserve" font-family="ProximaNova-Regular,Proxima Nova" font-size="36.0" fill="#DF7E3E" transform="matrix(1.00, 0.00, -0.00, -1.00, 254.6, 8.6)">s</text><text xml:space="preserve" font-family="ProximaNova-Regular,Proxima Nova" font-size="36.0" fill="#DF7E3E" transform="matrix(1.00, 0.00, -0.00, -1.00, 271.3, 8.6)">p</text><text xml:space="preserve" font-family="ProximaNova-Regular,Proxima Nova" font-size="36.0" fill="#DF7E3E" transform="matrix(1.00, 0.00, -0.00, -1.00, 291.9, 8.6)">a</text><text xml:space="preserve" font-family="ProximaNova-Regular,Proxima Nova" font-size="36.0" fill="#DF7E3E" transform="matrix(1.00, 0.00, -0.00, -1.00, 310.9, 8.6)">t</text><text xml:space="preserve" font-family="ProximaNova-Regular,Proxima Nova" font-size="36.0" fill="#DF7E3E" transform="matrix(1.00, 0.00, -0.00, -1.00, 321.5, 8.6)">c</text><text xml:space="preserve" font-family="ProximaNova-Regular,Proxima Nova" font-size="36.0" fill="#DF7E3E" transform="matrix(1.00, 0.00, -0.00, -1.00, 339.4, 8.6)">h</text><text xml:space="preserve" font-family="ProximaNova-Regular,Proxima Nova" font-size="36.0" fill="#DF7E3E" transform="matrix(1.00, 0.00, -0.00, -1.00, 359.3, 8.6)">e</text><text xml:space="preserve" font-family="ProximaNova-Regular,Proxima Nova" font-size="36.0" fill="#DF7E3E" transform="matrix(1.00, 0.00, -0.00, -1.00, 379.5, 8.6)">r</text></g></svg>