<?xml version="1.0" encoding="UTF-8" standalone="no"?><svg xmlns="http://www.w3.org/2000/svg" xmlns:xlink="http://www.w3.org/1999/xlink" clip-rule="evenodd" stroke-miterlimit="10" viewBox="0 0 202 28"><desc>SVG generated by Keynote</desc><defs></defs><g transform="matrix(1.00, 0.00, -0.00, -1.00, 0.0, 28.0)"><text xml:space="preserve" font-family="ProximaNova-Regular,Proxima Nova" font-size="36.0" fill="#DF7E3E" transform="matrix(1.00, 0.00, -0.00, -1.00, 0.0, 1.6)">T</text><text xml:space="preserve" font-family="ProximaNova-Regular,Proxima Nova" font-size="36.0" fill="#DF7E3E" transform="matrix(1.00, 0.00, -0.00, -1.00, 20.5, 1.6)">h</text><text xml:space="preserve" font-family="ProximaNova-Regular,Proxima Nova" font-size="36.0" fill="#DF7E3E" transform="matrix(1.00, 0.00, -0.00, -1.00, 40.4, 1.6)">e</text><text xml:space="preserve" font-family="ProximaNova-Regular,Proxima Nova" font-size="36.0" fill="#DF7E3E" transform="matrix(1.00, 0.00, -0.00, -1.00, 60.7, 1.6)"> </text><text xml:space="preserve" font-family="ProximaNova-Regular,Proxima Nova" font-size="36.0" fill="#DF7E3E" transform="matrix(1.00, 0.00, -0.00, -1.00, 70.0, 1.6)">G</text><text xml:space="preserve" font-family="ProximaNova-Regular,Proxima Nova" font-size="36.0" fill="#DF7E3E" transform="matrix(1.00, 0.00, -0.00, -1.00, 95.7, 1.6)">o</text><text xml:space="preserve" font-family="ProximaNova-Regular,Proxima Nova" font-size="36.0" fill="#DF7E3E" transform="matrix(1.00, 0.00, -0.00, -1.00, 116.2, 1.6)">o</text><text xml:space="preserve" font-family="ProximaNova-Regular,Proxima Nova" font-size="36.0" fill="#DF7E3E" transform="matrix(1.00, 0.00, -0.00, -1.00, 136.8, 1.6)">d</text><text xml:space="preserve" font-family="ProximaNova-Regular,Proxima Nova" font-size="36.0" fill="#DF7E3E" transform="matrix(1.00, 0.00, -0.00, -1.00, 157.5, 1.6)">i</text><text xml:space="preserve" font-family="ProximaNova-Regular,Proxima Nova" font-size="36.0" fill="#DF7E3E" transform="matrix(1.00, 0.00, -0.00, -1.00, 165.6, 1.6)">e</text><text xml:space="preserve" font-family="ProximaNova-Regular,Proxima Nova" font-size="36.0" fill="#DF7E3E" transform="matrix(1.00, 0.00, -0.00, -1.00, 185.9, 1.6)">s</text></g></svg>