<?xml version="1.0" encoding="UTF-8" standalone="no"?><svg xmlns="http://www.w3.org/2000/svg" xmlns:xlink="http://www.w3.org/1999/xlink" clip-rule="evenodd" stroke-miterlimit="10" viewBox="0 0 528 26"><desc>SVG generated by Keynote</desc><defs></defs><g transform="matrix(1.00, 0.00, -0.00, -1.00, 0.0, 26.0)"><text xml:space="preserve" font-family="Helvetica-LightOblique,Helvetica" font-style="italic" font-size="24.0" fill="#52575F" transform="matrix(1.00, 0.00, -0.00, -1.00, -0.3, 7.2)">r</text><text xml:space="preserve" font-family="Helvetica-LightOblique,Helvetica" font-style="italic" font-size="24.0" fill="#52575F" transform="matrix(1.00, 0.00, -0.00, -1.00, 7.3, 7.2)">e</text><text xml:space="preserve" font-family="Helvetica-LightOblique,Helvetica" font-style="italic" font-size="24.0" fill="#52575F" transform="matrix(1.00, 0.00, -0.00, -1.00, 20.6, 7.2)">q</text><text xml:space="preserve" font-family="Helvetica-LightOblique,Helvetica" font-style="italic" font-size="24.0" fill="#52575F" transform="matrix(1.00, 0.00, -0.00, -1.00, 35.3, 7.2)">u</text><text xml:space="preserve" font-family="Helvetica-LightOblique,Helvetica" font-style="italic" font-size="24.0" fill="#52575F" transform="matrix(1.00, 0.00, -0.00, -1.00, 48.7, 7.2)">i</text><text xml:space="preserve" font-family="Helvetica-LightOblique,Helvetica" font-style="italic" font-size="24.0" fill="#52575F" transform="matrix(1.00, 0.00, -0.00, -1.00, 54.0, 7.2)">r</text><text xml:space="preserve" font-family="Helvetica-LightOblique,Helvetica" font-style="italic" font-size="24.0" fill="#52575F" transform="matrix(1.00, 0.00, -0.00, -1.00, 61.5, 7.2)">e</text><text xml:space="preserve" font-family="Helvetica-LightOblique,Helvetica" font-style="italic" font-size="24.0" fill="#52575F" transform="matrix(1.00, 0.00, -0.00, -1.00, 74.9, 7.2)">s</text><text xml:space="preserve" font-family="Helvetica-LightOblique,Helvetica" font-style="italic" font-size="24.0" fill="#52575F" transform="matrix(1.00, 0.00, -0.00, -1.00, 86.9, 7.2)"> </text><text xml:space="preserve" font-family="Helvetica-LightOblique,Helvetica" font-style="italic" font-size="24.0" fill="#52575F" transform="matrix(1.00, 0.00, -0.00, -1.00, 93.6, 7.2)">s</text><text xml:space="preserve" font-family="Helvetica-LightOblique,Helvetica" font-style="italic" font-size="24.0" fill="#52575F" transform="matrix(1.00, 0.00, -0.00, -1.00, 105.6, 7.2)">c</text><text xml:space="preserve" font-family="Helvetica-LightOblique,Helvetica" font-style="italic" font-size="24.0" fill="#52575F" transform="matrix(1.00, 0.00, -0.00, -1.00, 118.9, 7.2)">h</text><text xml:space="preserve" font-family="Helvetica-LightOblique,Helvetica" font-style="italic" font-size="24.0" fill="#52575F" transform="matrix(1.00, 0.00, -0.00, -1.00, 132.2, 7.2)">e</text><text xml:space="preserve" font-family="Helvetica-LightOblique,Helvetica" font-style="italic" font-size="24.0" fill="#52575F" transform="matrix(1.00, 0.00, -0.00, -1.00, 145.6, 7.2)">d</text><text xml:space="preserve" font-family="Helvetica-LightOblique,Helvetica" font-style="italic" font-size="24.0" fill="#52575F" transform="matrix(1.00, 0.00, -0.00, -1.00, 160.3, 7.2)">u</text><text xml:space="preserve" font-family="Helvetica-LightOblique,Helvetica" font-style="italic" font-size="24.0" fill="#52575F" transform="matrix(1.00, 0.00, -0.00, -1.00, 173.6, 7.2)">l</text><text xml:space="preserve" font-family="Helvetica-LightOblique,Helvetica" font-style="italic" font-size="24.0" fill="#52575F" transform="matrix(1.00, 0.00, -0.00, -1.00, 178.9, 7.2)">e</text><text xml:space="preserve" font-family="Helvetica-LightOblique,Helvetica" font-style="italic" font-size="24.0" fill="#52575F" transform="matrix(1.00, 0.00, -0.00, -1.00, 192.3, 7.2)">d</text><text xml:space="preserve" font-family="Helvetica-LightOblique,Helvetica" font-style="italic" font-size="24.0" fill="#52575F" transform="matrix(1.00, 0.00, -0.00, -1.00, 206.9, 7.2)">:</text><text xml:space="preserve" font-family="Helvetica-LightOblique,Helvetica" font-style="italic" font-size="24.0" fill="#52575F" transform="matrix(1.00, 0.00, -0.00, -1.00, 213.6, 7.2)">r</text><text xml:space="preserve" font-family="Helvetica-LightOblique,Helvetica" font-style="italic" font-size="24.0" fill="#52575F" transform="matrix(1.00, 0.00, -0.00, -1.00, 221.6, 7.2)">u</text><text xml:space="preserve" font-family="Helvetica-LightOblique,Helvetica" font-style="italic" font-size="24.0" fill="#52575F" transform="matrix(1.00, 0.00, -0.00, -1.00, 234.9, 7.2)">n</text><text xml:space="preserve" font-family="Helvetica-LightOblique,Helvetica" font-style="italic" font-size="24.0" fill="#52575F" transform="matrix(1.00, 0.00, -0.00, -1.00, 248.3, 7.2)"> </text><text xml:space="preserve" font-family="Helvetica-LightOblique,Helvetica" font-style="italic" font-size="24.0" fill="#52575F" transform="matrix(1.00, 0.00, -0.00, -1.00, 255.0, 7.2)">t</text><text xml:space="preserve" font-family="Helvetica-LightOblique,Helvetica" font-style="italic" font-size="24.0" fill="#52575F" transform="matrix(1.00, 0.00, -0.00, -1.00, 261.6, 7.2)">o</text><text xml:space="preserve" font-family="Helvetica-LightOblique,Helvetica" font-style="italic" font-size="24.0" fill="#52575F" transform="matrix(1.00, 0.00, -0.00, -1.00, 275.0, 7.2)"> </text><text xml:space="preserve" font-family="Helvetica-LightOblique,Helvetica" font-style="italic" font-size="24.0" fill="#52575F" transform="matrix(1.00, 0.00, -0.00, -1.00, 281.6, 7.2)">r</text><text xml:space="preserve" font-family="Helvetica-LightOblique,Helvetica" font-style="italic" font-size="24.0" fill="#52575F" transform="matrix(1.00, 0.00, -0.00, -1.00, 289.6, 7.2)">u</text><text xml:space="preserve" font-family="Helvetica-LightOblique,Helvetica" font-style="italic" font-size="24.0" fill="#52575F" transform="matrix(1.00, 0.00, -0.00, -1.00, 303.0, 7.2)">n</text><text xml:space="preserve" font-family="Helvetica-LightOblique,Helvetica" font-style="italic" font-size="24.0" fill="#52575F" transform="matrix(1.00, 0.00, -0.00, -1.00, 316.3, 7.2)"> </text><text xml:space="preserve" font-family="Helvetica-LightOblique,Helvetica" font-style="italic" font-size="24.0" fill="#52575F" transform="matrix(1.00, 0.00, -0.00, -1.00, 323.0, 7.2)">o</text><text xml:space="preserve" font-family="Helvetica-LightOblique,Helvetica" font-style="italic" font-size="24.0" fill="#52575F" transform="matrix(1.00, 0.00, -0.00, -1.00, 336.3, 7.2)">n</text><text xml:space="preserve" font-family="Helvetica-LightOblique,Helvetica" font-style="italic" font-size="24.0" fill="#52575F" transform="matrix(1.00, 0.00, -0.00, -1.00, 349.7, 7.2)"> </text><text xml:space="preserve" font-family="Helvetica-LightOblique,Helvetica" font-style="italic" font-size="24.0" fill="#52575F" transform="matrix(1.00, 0.00, -0.00, -1.00, 356.4, 7.2)">t</text><text xml:space="preserve" font-family="Helvetica-LightOblique,Helvetica" font-style="italic" font-size="24.0" fill="#52575F" transform="matrix(1.00, 0.00, -0.00, -1.00, 363.0, 7.2)">h</text><text xml:space="preserve" font-family="Helvetica-LightOblique,Helvetica" font-style="italic" font-size="24.0" fill="#52575F" transform="matrix(1.00, 0.00, -0.00, -1.00, 376.4, 7.2)">e</text><text xml:space="preserve" font-family="Helvetica-LightOblique,Helvetica" font-style="italic" font-size="24.0" fill="#52575F" transform="matrix(1.00, 0.00, -0.00, -1.00, 389.7, 7.2)"> </text><text xml:space="preserve" font-family="Helvetica-LightOblique,Helvetica" font-style="italic" font-size="24.0" fill="#52575F" transform="matrix(1.00, 0.00, -0.00, -1.00, 396.4, 7.2)">r</text><text xml:space="preserve" font-family="Helvetica-LightOblique,Helvetica" font-style="italic" font-size="24.0" fill="#52575F" transform="matrix(1.00, 0.00, -0.00, -1.00, 404.0, 7.2)">o</text><text xml:space="preserve" font-family="Helvetica-LightOblique,Helvetica" font-style="italic" font-size="24.0" fill="#52575F" transform="matrix(1.00, 0.00, -0.00, -1.00, 417.3, 7.2)">o</text><text xml:space="preserve" font-family="Helvetica-LightOblique,Helvetica" font-style="italic" font-size="24.0" fill="#52575F" transform="matrix(1.00, 0.00, -0.00, -1.00, 430.6, 7.2)">t</text><text xml:space="preserve" font-family="Helvetica-LightOblique,Helvetica" font-style="italic" font-size="24.0" fill="#52575F" transform="matrix(1.00, 0.00, -0.00, -1.00, 437.3, 7.2)"> </text><text xml:space="preserve" font-family="Helvetica-LightOblique,Helvetica" font-style="italic" font-size="24.0" fill="#52575F" transform="matrix(1.00, 0.00, -0.00, -1.00, 444.0, 7.2)">c</text><text xml:space="preserve" font-family="Helvetica-LightOblique,Helvetica" font-style="italic" font-size="24.0" fill="#52575F" transform="matrix(1.00, 0.00, -0.00, -1.00, 457.3, 7.2)">r</text><text xml:space="preserve" font-family="Helvetica-LightOblique,Helvetica" font-style="italic" font-size="24.0" fill="#52575F" transform="matrix(1.00, 0.00, -0.00, -1.00, 464.9, 7.2)">o</text><text xml:space="preserve" font-family="Helvetica-LightOblique,Helvetica" font-style="italic" font-size="24.0" fill="#52575F" transform="matrix(1.00, 0.00, -0.00, -1.00, 478.2, 7.2)">n</text><text xml:space="preserve" font-family="Helvetica-LightOblique,Helvetica" font-style="italic" font-size="24.0" fill="#52575F" transform="matrix(1.00, 0.00, -0.00, -1.00, 491.6, 7.2)">t</text><text xml:space="preserve" font-family="Helvetica-LightOblique,Helvetica" font-style="italic" font-size="24.0" fill="#52575F" transform="matrix(1.00, 0.00, -0.00, -1.00, 498.2, 7.2)">a</text><text xml:space="preserve" font-family="Helvetica-LightOblique,Helvetica" font-style="italic" font-size="24.0" fill="#52575F" transform="matrix(1.00, 0.00, -0.00, -1.00, 511.6, 7.2)">b</text></g></svg>