<?xml version="1.0" encoding="UTF-8" standalone="no"?><svg xmlns="http://www.w3.org/2000/svg" xmlns:xlink="http://www.w3.org/1999/xlink" clip-rule="evenodd" stroke-miterlimit="10" viewBox="0 0 848 227"><desc>SVG generated by Keynote</desc><defs></defs><g transform="matrix(1.00, 0.00, -0.00, -1.00, 0.0, 227.0)"><g><clipPath id="clip0x6080006b3920"><path d="M 0.5 126.0 L 803.5 126.0 L 803.5 226.6 L 0.5 226.6 Z M 0.5 126.0 "></path></clipPath><g clip-path="url(#clip0x6080006b3920)"><path d="M 2.0 226.0 L 803.0 226.0 L 803.0 127.0 L 2.0 127.0 Z M 1.5 225.6 " fill="#FBC05A" fill-opacity="0.40"></path></g></g><g><clipPath id="clip0x6080006b4100"><path d="M 19.0 173.3 L 849.0 173.3 L 849.0 221.3 L 19.0 221.3 Z M 19.0 173.3 "></path></clipPath><g clip-path="url(#clip0x6080006b4100)"><text xml:space="preserve" font-family="ProximaNova-Regular,Proxima Nova" font-size="28.0" fill="#000000" transform="matrix(1.00, 0.00, -0.00, -1.00, 26.0, 186.2)">I</text><text xml:space="preserve" font-family="ProximaNova-Regular,Proxima Nova" font-size="28.0" fill="#000000" transform="matrix(1.00, 0.00, -0.00, -1.00, 32.7, 186.2)">f</text><text xml:space="preserve" font-family="ProximaNova-Regular,Proxima Nova" font-size="28.0" fill="#000000" transform="matrix(1.00, 0.00, -0.00, -1.00, 40.7, 186.2)"> </text><text xml:space="preserve" font-family="ProximaNova-Regular,Proxima Nova" font-size="28.0" fill="#000000" transform="matrix(1.00, 0.00, -0.00, -1.00, 47.9, 186.2)">y</text><text xml:space="preserve" font-family="ProximaNova-Regular,Proxima Nova" font-size="28.0" fill="#000000" transform="matrix(1.00, 0.00, -0.00, -1.00, 61.6, 186.2)">o</text><text xml:space="preserve" font-family="ProximaNova-Regular,Proxima Nova" font-size="28.0" fill="#000000" transform="matrix(1.00, 0.00, -0.00, -1.00, 77.6, 186.2)">u</text><text xml:space="preserve" font-family="ProximaNova-Regular,Proxima Nova" font-size="28.0" fill="#000000" transform="matrix(1.00, 0.00, -0.00, -1.00, 93.1, 186.2)"> </text><text xml:space="preserve" font-family="ProximaNova-Regular,Proxima Nova" font-size="28.0" fill="#000000" transform="matrix(1.00, 0.00, -0.00, -1.00, 100.3, 186.2)">m</text><text xml:space="preserve" font-family="ProximaNova-Regular,Proxima Nova" font-size="28.0" fill="#000000" transform="matrix(1.00, 0.00, -0.00, -1.00, 122.9, 186.2)">u</text><text xml:space="preserve" font-family="ProximaNova-Regular,Proxima Nova" font-size="28.0" fill="#000000" transform="matrix(1.00, 0.00, -0.00, -1.00, 138.4, 186.2)">s</text><text xml:space="preserve" font-family="ProximaNova-Regular,Proxima Nova" font-size="28.0" fill="#000000" transform="matrix(1.00, 0.00, -0.00, -1.00, 151.4, 186.2)">t</text><text xml:space="preserve" font-family="ProximaNova-Regular,Proxima Nova" font-size="28.0" fill="#000000" transform="matrix(1.00, 0.00, -0.00, -1.00, 159.6, 186.2)">,</text><text xml:space="preserve" font-family="ProximaNova-Regular,Proxima Nova" font-size="28.0" fill="#000000" transform="matrix(1.00, 0.00, -0.00, -1.00, 166.1, 186.2)"> </text><text xml:space="preserve" font-family="ProximaNova-Regular,Proxima Nova" font-size="28.0" fill="#000000" transform="matrix(1.00, 0.00, -0.00, -1.00, 173.3, 186.2)">u</text><text xml:space="preserve" font-family="ProximaNova-Regular,Proxima Nova" font-size="28.0" fill="#000000" transform="matrix(1.00, 0.00, -0.00, -1.00, 188.7, 186.2)">s</text><text xml:space="preserve" font-family="ProximaNova-Regular,Proxima Nova" font-size="28.0" fill="#000000" transform="matrix(1.00, 0.00, -0.00, -1.00, 201.8, 186.2)">e</text><text xml:space="preserve" font-family="ProximaNova-Regular,Proxima Nova" font-size="28.0" fill="#000000" transform="matrix(1.00, 0.00, -0.00, -1.00, 217.5, 186.2)"> </text><text xml:space="preserve" font-family="ProximaNova-Regular,Proxima Nova" font-size="28.0" fill="#000000" transform="matrix(1.00, 0.00, -0.00, -1.00, 224.8, 186.2)">r</text><text xml:space="preserve" font-family="ProximaNova-Regular,Proxima Nova" font-size="28.0" fill="#000000" transform="matrix(1.00, 0.00, -0.00, -1.00, 234.0, 186.2)">a</text><text xml:space="preserve" font-family="ProximaNova-Regular,Proxima Nova" font-size="28.0" fill="#000000" transform="matrix(1.00, 0.00, -0.00, -1.00, 248.8, 186.2)">w</text><text xml:space="preserve" font-family="ProximaNova-Regular,Proxima Nova" font-size="28.0" fill="#000000" transform="matrix(1.00, 0.00, -0.00, -1.00, 269.4, 186.2)"> </text><text xml:space="preserve" font-family="ProximaNova-Regular,Proxima Nova" font-size="28.0" fill="#000000" transform="matrix(1.00, 0.00, -0.00, -1.00, 276.6, 186.2)">c</text><text xml:space="preserve" font-family="ProximaNova-Regular,Proxima Nova" font-size="28.0" fill="#000000" transform="matrix(1.00, 0.00, -0.00, -1.00, 290.5, 186.2)">r</text><text xml:space="preserve" font-family="ProximaNova-Regular,Proxima Nova" font-size="28.0" fill="#000000" transform="matrix(1.00, 0.00, -0.00, -1.00, 299.7, 186.2)">o</text><text xml:space="preserve" font-family="ProximaNova-Regular,Proxima Nova" font-size="28.0" fill="#000000" transform="matrix(1.00, 0.00, -0.00, -1.00, 315.8, 186.2)">n</text><text xml:space="preserve" font-family="ProximaNova-Regular,Proxima Nova" font-size="28.0" fill="#000000" transform="matrix(1.00, 0.00, -0.00, -1.00, 331.2, 186.2)"> </text><text xml:space="preserve" font-family="ProximaNova-Regular,Proxima Nova" font-size="28.0" fill="#000000" transform="matrix(1.00, 0.00, -0.00, -1.00, 338.5, 186.2)">e</text><text xml:space="preserve" font-family="ProximaNova-Regular,Proxima Nova" font-size="28.0" fill="#000000" transform="matrix(1.00, 0.00, -0.00, -1.00, 354.2, 186.2)">x</text><text xml:space="preserve" font-family="ProximaNova-Regular,Proxima Nova" font-size="28.0" fill="#000000" transform="matrix(1.00, 0.00, -0.00, -1.00, 367.9, 186.2)">p</text><text xml:space="preserve" font-family="ProximaNova-Regular,Proxima Nova" font-size="28.0" fill="#000000" transform="matrix(1.00, 0.00, -0.00, -1.00, 383.9, 186.2)">r</text><text xml:space="preserve" font-family="ProximaNova-Regular,Proxima Nova" font-size="28.0" fill="#000000" transform="matrix(1.00, 0.00, -0.00, -1.00, 393.1, 186.2)">e</text><text xml:space="preserve" font-family="ProximaNova-Regular,Proxima Nova" font-size="28.0" fill="#000000" transform="matrix(1.00, 0.00, -0.00, -1.00, 408.9, 186.2)">s</text><text xml:space="preserve" font-family="ProximaNova-Regular,Proxima Nova" font-size="28.0" fill="#000000" transform="matrix(1.00, 0.00, -0.00, -1.00, 421.9, 186.2)">s</text><text xml:space="preserve" font-family="ProximaNova-Regular,Proxima Nova" font-size="28.0" fill="#000000" transform="matrix(1.00, 0.00, -0.00, -1.00, 434.9, 186.2)">i</text><text xml:space="preserve" font-family="ProximaNova-Regular,Proxima Nova" font-size="28.0" fill="#000000" transform="matrix(1.00, 0.00, -0.00, -1.00, 441.2, 186.2)">o</text><text xml:space="preserve" font-family="ProximaNova-Regular,Proxima Nova" font-size="28.0" fill="#000000" transform="matrix(1.00, 0.00, -0.00, -1.00, 457.2, 186.2)">n</text><text xml:space="preserve" font-family="ProximaNova-Regular,Proxima Nova" font-size="28.0" fill="#000000" transform="matrix(1.00, 0.00, -0.00, -1.00, 472.7, 186.2)">s</text></g></g><g><clipPath id="clip0x6080006b50c0"><path d="M 1.5 0.5 L 802.5 0.5 L 802.5 166.8 L 1.5 166.8 Z M 1.5 0.5 "></path></clipPath><g clip-path="url(#clip0x6080006b50c0)"><path d="M 3.0 166.0 L 802.0 166.0 L 802.0 1.0 L 3.0 1.0 Z M 2.5 165.8 " fill="#383838"></path></g></g><g><clipPath id="clip0x6080006b5300"><path d="M 27.6 24.1 L 662.4 24.1 L 662.4 133.4 L 27.6 133.4 Z M 27.6 24.1 "></path></clipPath><g clip-path="url(#clip0x6080006b5300)"><image xlink:href="B293EF010C0705468D8C95616DAAC894.png" width="930.00" height="160.00" transform="matrix(0.68, 0.00, -0.00, -0.68, 27.6, 133.4)"></image></g></g></g></svg>